# This file uses centimeters as units for non-parametric coordinates.

mtllib internal_3.mtl
g default
v -0.530118 -1.139465 -1.962703
v -1.955749 -1.171382 0.000000
v -1.331118 0.842058 -0.909383
v -0.798654 0.169759 -0.577350
v -0.798654 0.169759 0.577350
v -0.530118 -1.139465 1.962703
v -1.331118 0.842058 0.909383
v 0.398198 0.880775 -1.471413
v 0.398198 0.880775 1.471413
v 0.299256 0.194339 -0.934172
v -0.589124 -0.808043 0.000000
v 0.508787 -0.783463 -0.356822
v -0.169759 -0.798654 -0.577350
v -0.169759 -0.798654 0.577350
v 0.299256 0.194339 0.934172
v 0.977802 0.209531 0.000000
v 0.508787 -0.783463 0.356822
v 1.776601 -1.087821 -1.213018
v 1.776601 -1.087821 1.213018
v 0.950818 0.021287 -0.309017
v 0.587638 0.013156 -0.809017
v 0.251032 0.531483 -0.809017
v 0.544639 -0.838671 0.000000
v 0.699786 -0.510196 -0.500000
v 0.950818 0.021287 0.309017
v 0.699786 -0.510196 0.500000
v 0.904213 -0.427082 0.000000
v 0.587638 0.013156 0.809017
v 0.280598 1.448949 0.319462
v 0.251032 0.531483 0.809017
v 0.713416 0.463298 0.525731
v -0.702358 1.426942 0.000000
v -0.326902 1.435348 0.516900
v -0.326902 1.435348 -0.516900
v -0.170300 2.998456 -0.000000
v -0.838671 -0.544639 0.000000
v -0.950818 -0.021287 -0.309017
v -0.587638 -0.013156 -0.809017
v -0.251032 -0.531483 -0.809017
v -0.406179 -0.859957 -0.309017
v -0.713416 -0.463298 -0.525731
v -0.406179 -0.859957 0.309017
v -0.251032 -0.531483 0.809017
v -0.587638 -0.013156 0.809017
v -0.950818 -0.021287 0.309017
v -0.713416 -0.463298 0.525731
v 0.000000 0.000000 -1.000000
v 0.181459 -0.846801 -0.500000
v 0.286334 -0.440915 -0.850651
v -0.699786 0.510196 -0.500000
v -0.286334 0.440915 -0.850651
v -0.699786 0.510196 0.500000
v -0.904213 0.427082 0.000000
v 0.000000 0.000000 1.000000
v -0.286334 0.440915 0.850651
v 0.181459 -0.846801 0.500000
v 0.022382 -0.999749 0.000000
v 0.286334 -0.440915 0.850651
v -0.953460 1.922263 -1.329359
v -1.645902 2.089405 -1.110114
v -1.919055 1.900645 -0.000000
v -1.645902 2.089405 1.110114
v -0.953460 1.922263 1.329359
v 0.465131 2.136668 1.796202
v 0.608902 1.957241 0.821589
v 1.769821 2.165879 -0.000000
v 0.608902 1.957241 -0.821589
v 0.465131 2.136668 -1.796202
v 0.280598 1.448949 -0.319462
v 0.713416 0.463298 -0.525731
v 0.838671 0.544639 0.000000
v 1.189447 0.745659 0.000000
v 0.628446 1.149344 -0.226079
v 1.286436 0.801241 0.000000
v 1.466975 0.904703 0.000000
vt 1.000000 0.383860
vt 0.250000 0.116140
vt 0.191930 0.500000
vt 0.125000 0.304087
vt 0.375000 0.304087
vt 0.500000 0.383860
vt 0.250000 0.883860
vt 0.308070 0.500000
vt 0.125000 0.695913
vt 0.375000 0.695913
vt 1.000000 0.616140
vt 0.750000 0.116140
vt 0.808070 0.500000
vt 0.875000 0.304087
vt 0.625000 0.304087
vt 0.500000 0.616140
vt 0.750000 0.883860
vt 0.691930 0.500000
vt 0.875000 0.695913
vt 0.625000 0.695913
vt 0.500000 1.000000
vt 0.838104 0.800000
vt 0.941930 0.666667
vt 0.058070 0.666667
vt 0.161896 0.800000
vt 1.000000 0.823792
vt 0.750000 0.500000
vt 0.838104 0.600000
vt 0.661896 0.800000
vt 0.661896 0.600000
vt 0.750000 0.676208
vt 0.558070 0.666667
vt 0.338104 0.800000
vt 0.441930 0.666667
vt 0.500000 0.823792
vt 0.250000 0.500000
vt 0.338104 0.600000
vt 0.161896 0.600000
vt 0.250000 0.676208
vt 0.500000 1.000000
vt 0.161896 0.200000
vt 0.058070 0.333333
vt 0.941930 0.333333
vt 0.838104 0.200000
vt 1.000000 0.176208
vt 0.661896 0.200000
vt 0.558070 0.333333
vt 0.441930 0.333333
vt 0.338104 0.200000
vt 0.500000 0.176208
vt 1.000000 0.500000
vt 0.838104 0.400000
vt 0.911896 0.500000
vt 0.161896 0.400000
vt 0.088104 0.500000
vt 0.338104 0.400000
vt 0.250000 0.323792
vt 0.500000 0.500000
vt 0.411896 0.500000
vt 0.661896 0.400000
vt 0.750000 0.323792
vt 0.588104 0.500000
vt 1.161896 0.800000
vt 0.000000 0.000000
vt 1.058070 0.666667
vt 1.125000 0.695913
vt 1.250000 0.116140
vt 1.161896 0.200000
vt 1.125000 0.304087
vt 1.058070 0.333333
vt 1.088104 0.500000
vt 0.161896 0.600000
vt 0.191930 0.500000
vt 0.250000 0.500000
vt 0.308070 0.500000
vt 0.338104 0.600000
vt 0.375000 0.695913
vt 0.338104 0.800000
vt 0.250000 0.883860
vt 0.125000 0.695913
vt -1.331118 0.842058
vt 1.466975 0.904703
vt -1.331118 0.842058
vt 0.398198 0.880775
vt 0.398198 0.880775
vt 0.280598 1.448949
vt 0.280598 1.448949
vt -0.702358 1.426942
vt -0.326902 1.435348
vt -0.326902 1.435348
vt -0.326902 1.435348
vt -1.331118 0.842058
vt -0.702358 1.426942
vt -1.331118 0.842058
vt -0.326902 1.435348
vt 0.398198 0.880775
vt 0.280598 1.448949
vt 1.466975 0.904703
vt 0.280598 1.448949
vt 0.398198 0.880775
vt 0.000000 0.000000
vt 0.000000 0.000000
vt 0.000000 0.000000
vt 0.000000 0.000000
vt 0.000000 0.000000
vt 0.000000 0.000000
vt 0.375000 0.941930
vt 0.437500 0.970965
vn -0.512503 -0.578593 -0.634485
vn -0.512503 -0.578593 -0.634485
vn -0.512503 -0.578593 -0.634485
vn -0.512503 -0.578593 -0.634485
vn 0.892676 0.355139 -0.277498
vn 0.892677 0.355139 -0.277498
vn 0.681942 0.588567 -0.434216
vn 0.809466 0.397284 -0.432355
vn 0.622425 0.631504 -0.462374
vn 0.614557 0.586241 -0.527865
vn 0.534519 0.347121 -0.770582
vn 0.902413 0.171211 -0.395395
vn 0.956504 0.112742 -0.269054
vn 0.956504 0.112742 -0.269054
vn 0.653409 -0.582720 -0.483213
vn 0.745824 -0.638963 0.188342
vn 0.759415 -0.650606 0.000000
vn 0.804197 -0.594362 -0.000000
vn 0.745824 -0.638963 -0.188342
vn 0.653409 -0.582720 0.483213
vn 0.550513 -0.500198 0.668384
vn 0.759715 -0.414868 0.500717
vn 0.993385 -0.114831 0.000000
vn 0.759715 -0.414868 -0.500717
vn 0.550513 -0.500198 -0.668384
vn 0.902413 0.171211 0.395395
vn 0.534519 0.347121 0.770582
vn 0.614557 0.586241 0.527865
vn 0.761938 0.305431 0.571106
vn 0.622425 0.631504 0.462374
vn 0.681942 0.588568 0.434216
vn 0.892676 0.355139 0.277498
vn 0.660348 0.122596 0.740885
vn 0.977999 -0.207008 0.025806
vn 0.977999 -0.207008 0.025806
vn 0.977999 -0.207008 0.025806
vn 0.977999 -0.207008 0.025806
vn 0.816030 0.087123 0.571406
vn 0.956504 0.112742 0.269054
vn -0.155447 0.932083 -0.327196
vn -0.364435 0.897009 -0.250124
vn -0.376399 0.926458 0.000000
vn 0.011613 0.999933 0.000000
vn -0.364435 0.897009 0.250124
vn -0.155447 0.932083 0.327196
vn 0.109079 0.910720 0.398360
vn 0.246478 0.942985 0.223668
vn 0.394358 0.918957 0.000000
vn 0.246478 0.942985 -0.223668
vn 0.109079 0.910720 -0.398360
vn -0.587355 -0.680758 -0.437702
vn -0.687520 -0.671052 -0.277497
vn -0.257312 -0.606829 -0.752030
vn -0.635013 -0.612149 -0.471203
vn -0.065860 -0.517764 -0.852985
vn -0.350067 -0.429868 -0.832266
vn -0.798117 -0.154939 -0.582240
vn -0.888609 -0.447703 -0.099686
vn -0.829477 -0.538669 0.147664
vn -0.788374 -0.613508 -0.045533
vn -0.466167 -0.666097 -0.582240
vn -0.350067 -0.429868 0.832266
vn -0.065860 -0.517764 0.852985
vn -0.257312 -0.606829 0.752030
vn -0.635013 -0.612149 0.471203
vn -0.687520 -0.671052 0.277497
vn -0.587355 -0.680758 0.437702
vn -0.466167 -0.666097 0.582240
vn -0.788374 -0.613508 0.045533
vn -0.829477 -0.538669 -0.147664
vn -0.888609 -0.447703 0.099686
vn -0.798117 -0.154939 0.582240
vn 0.244995 -0.662123 -0.708217
vn 0.061532 -0.654283 -0.753743
vn 0.667098 -0.586878 -0.458861
vn 0.259150 -0.601122 -0.755972
vn 0.819757 -0.492331 -0.292590
vn 0.715129 -0.408692 -0.567064
vn 0.309092 -0.130150 -0.942084
vn -0.201455 -0.438274 -0.875975
vn -0.409871 -0.527299 -0.744286
vn -0.215718 -0.599075 -0.771087
vn 0.419689 -0.646264 -0.637341
vn -0.215341 0.542685 -0.811863
vn -0.263100 0.582012 -0.769442
vn -0.326878 0.538916 -0.776351
vn -0.324133 0.180945 -0.928545
vn -0.572690 0.322333 -0.753743
vn -0.099016 0.046359 -0.994005
vn 0.042542 -0.035386 -0.998468
vn -0.277473 -0.089885 -0.956519
vn -0.613655 -0.141313 -0.776826
vn -0.498797 -0.032482 -0.866110
vn 0.006821 0.335307 -0.942084
vn -0.857722 0.510711 -0.059055
vn -0.835437 0.549586 0.000000
vn -0.857722 0.510711 0.059055
vn -0.994715 0.102678 0.000000
vn -0.898825 0.315031 0.304743
vn -0.974507 -0.080257 -0.209512
vn -0.919220 -0.190518 -0.344584
vn -0.979190 -0.202947 0.000000
vn -0.919220 -0.190518 0.344584
vn -0.974507 -0.080257 0.209512
vn -0.898825 0.315031 -0.304743
vn -0.099016 0.046359 0.994005
vn -0.572690 0.322333 0.753743
vn -0.326878 0.538916 0.776351
vn -0.324133 0.180945 0.928545
vn -0.263100 0.582012 0.769442
vn -0.215341 0.542685 0.811863
vn 0.006821 0.335307 0.942084
vn -0.498797 -0.032482 0.866110
vn -0.613655 -0.141313 0.776826
vn -0.277473 -0.089885 0.956519
vn 0.042542 -0.035386 0.998468
vn -0.191901 -0.969073 0.155148
vn -0.299143 -0.954208 0.000000
vn -0.191901 -0.969073 -0.155148
vn 0.022382 -0.999749 0.000000
vn -0.077790 -0.949253 -0.304743
vn 0.103134 -0.962468 -0.251035
vn 0.280367 -0.941234 -0.188342
vn 0.285476 -0.958386 0.000000
vn 0.280367 -0.941234 0.188342
vn 0.103134 -0.962468 0.251035
vn -0.077790 -0.949253 0.304743
vn 0.715129 -0.408692 0.567064
vn 0.819757 -0.492331 0.292590
vn 0.667098 -0.586878 0.458862
vn 0.259150 -0.601122 0.755972
vn 0.061532 -0.654283 0.753743
vn 0.244995 -0.662123 0.708217
vn 0.419689 -0.646264 0.637341
vn -0.215718 -0.599075 0.771087
vn -0.409871 -0.527299 0.744286
vn -0.201455 -0.438274 0.875975
vn 0.309092 -0.130150 0.942084
vn 0.194742 -0.413831 -0.889280
vn 0.194742 -0.413831 -0.889280
vn 0.194742 -0.413831 -0.889280
vn 0.194742 -0.413831 -0.889280
vn -0.737252 -0.626570 0.252723
vn -0.737252 -0.626570 0.252723
vn -0.737252 -0.626570 0.252723
vn -0.737252 -0.626570 0.252723
vn -0.737252 -0.626570 -0.252723
vn -0.737252 -0.626570 -0.252723
vn -0.737252 -0.626570 -0.252723
vn -0.737252 -0.626570 -0.252723
vn 0.194742 -0.413831 0.889280
vn 0.194742 -0.413831 0.889281
vn 0.194742 -0.413831 0.889281
vn 0.194742 -0.413831 0.889281
vn -0.512503 -0.578593 0.634485
vn -0.512503 -0.578593 0.634485
vn -0.512503 -0.578593 0.634485
vn -0.512503 -0.578593 0.634485
vn 0.977999 -0.207008 -0.025806
vn 0.977999 -0.207008 -0.025806
vn 0.977999 -0.207008 -0.025806
vn 0.977999 -0.207008 -0.025806
vn 0.362323 -0.371776 0.854695
vn 0.362323 -0.371776 0.854695
vn 0.362323 -0.371776 0.854695
vn 0.362323 -0.371776 0.854695
vn 0.362323 -0.371776 -0.854695
vn 0.362323 -0.371776 -0.854695
vn 0.362323 -0.371776 -0.854695
vn 0.362323 -0.371776 -0.854695
vn 0.574347 0.070943 -0.815532
vn 0.574347 0.070943 -0.815532
vn 0.574347 0.070943 -0.815532
vn 0.574347 0.070943 -0.815532
vn 0.574347 0.070943 -0.815532
vn 0.574347 0.070943 -0.815532
vn 0.574347 0.070943 -0.815532
vn 0.552784 0.047225 0.831985
vn 0.552784 0.047225 0.831986
vn 0.552784 0.047225 0.831985
s off
g pPlatonic1
usemtl initialShadingGroup
f 8/84/1 34/90/2 59/91/3 68/100/4
s 1
f 71/21/5 16/17/6 20/22/7 70/26/8
f 20/22/7 18/19/9 21/23/10 70/26/8
f 21/23/10 10/11/11 22/65/12 70/26/8
f 22/65/12 8/66/13 69/63/14 70/26/8
s 2
f 26/30/15 17/18/16 23/27/17 27/31/18
f 23/27/17 12/13/19 24/28/20 27/31/18
f 24/28/20 18/19/21 20/22/22 27/31/18
f 20/22/22 16/17/23 25/29/24 27/31/18
f 25/29/24 19/20/25 26/30/15 27/31/18
s 3
f 30/34/26 15/16/27 28/32/28 31/35/29
f 28/32/28 19/20/30 25/29/31 31/35/29
f 25/29/31 16/17/32 71/21/33 31/35/29
s off
f 69/86/34 8/84/35 68/100/36 67/99/37
s 3
f 29/33/38 9/10/39 30/34/26 31/35/29
s 4
f 59/72/40 60/73/41 61/74/42 35/39/43
f 61/74/42 62/75/44 63/76/45 35/39/43
f 63/76/45 64/77/46 65/78/47 35/39/43
f 65/78/47 66/79/48 67/25/49 35/39/43
f 67/25/49 68/80/50 59/72/40 35/39/43
s 5
f 40/44/51 11/12/52 36/40/53 41/45/54
f 36/40/53 2/67/55 37/68/56 41/45/54
f 37/68/56 4/69/57 38/70/58 41/45/54
f 38/70/58 1/1/59 39/43/60 41/45/54
f 39/43/60 13/14/61 40/44/51 41/45/54
s 6
f 45/49/62 2/2/63 36/40/64 46/50/65
f 36/40/64 11/12/66 42/46/67 46/50/65
f 42/46/67 14/15/68 43/47/69 46/50/65
f 43/47/69 6/6/70 44/48/71 46/50/65
f 44/48/71 5/5/72 45/49/62 46/50/65
s 7
f 48/52/73 13/14/74 39/43/75 49/53/76
f 39/43/75 1/1/77 47/51/78 49/53/76
f 47/51/78 10/11/79 21/23/80 49/53/76
f 21/23/80 18/19/81 24/28/82 49/53/76
f 24/28/82 12/13/83 48/52/73 49/53/76
s 8
f 47/51/84 1/1/85 38/70/86 51/71/87
f 38/42/86 4/4/88 50/54/89 51/55/87
f 50/54/89 3/3/90 34/38/91 51/55/87
f 34/38/91 8/9/92 22/24/93 51/55/87
f 22/65/93 10/11/94 47/51/84 51/71/87
s 9
f 37/41/95 2/2/96 45/49/97 53/57/98
f 45/49/97 5/5/99 52/56/100 53/57/98
f 52/56/100 7/8/101 32/36/102 53/57/98
f 32/36/102 3/3/103 50/54/104 53/57/98
f 50/54/104 4/4/105 37/41/95 53/57/98
s 10
f 52/56/106 5/5/107 44/48/108 55/59/109
f 44/48/108 6/6/110 54/58/111 55/59/109
f 54/58/111 15/16/112 30/34/113 55/59/109
f 30/34/113 9/10/114 33/37/115 55/59/109
f 33/37/115 7/8/116 52/56/106 55/59/109
s 11
f 42/46/117 11/12/118 40/44/119 57/61/120
f 40/44/119 13/14/121 48/52/122 57/61/120
f 48/52/122 12/13/123 23/27/124 57/61/120
f 23/27/124 17/18/125 56/60/126 57/61/120
f 56/60/126 14/15/127 42/46/117 57/61/120
s 12
f 54/58/128 6/6/129 43/47/130 58/62/131
f 43/47/130 14/15/132 56/60/133 58/62/131
f 56/60/133 17/18/134 26/30/135 58/62/131
f 26/30/135 19/20/136 28/32/137 58/62/131
f 28/32/137 15/16/138 54/58/128 58/62/131
s off
f 34/90/139 3/81/140 60/92/141 59/91/142
f 3/81/143 32/88/144 61/93/145 60/92/146
f 32/88/147 7/83/148 62/94/149 61/93/150
f 7/83/151 33/89/152 63/95/153 62/94/154
f 33/89/155 9/85/156 64/96/157 63/95/158
f 9/85/159 29/87/160 65/97/161 64/96/162
f 29/87/163 75/82/164 66/98/165 65/97/166
f 75/82/167 69/86/168 67/99/169 66/98/170
f 74/106/171 73/105/172 72/104/173 71/103/174 70/102/175 69/101/176 75/64/177
s 3
f 71/21/33 72/108/178 74/107/179 75/7/180 29/33/38 31/35/29
