# This file uses centimeters as units for non-parametric coordinates.

mtllib 01.mtl
g default
v 0.000000 -14.715593 0.000000
v 0.000000 3.754738 0.000000
v 1.484699 1.160278 -2.871505
v 1.186792 0.798760 -3.767223
v 0.486682 1.160278 -3.195780
v 0.554137 5.886271 -1.705460
v 1.063203 6.378083 -1.574276
v 0.065187 6.378083 -1.898548
v -2.272167 1.160278 -2.299376
v -3.222697 0.818377 -2.315829
v -2.888974 1.160278 -1.450413
v -1.450750 5.886271 -1.054032
v -1.168676 6.378083 -1.497642
v -1.785485 6.378083 -0.648681
v -2.888975 1.160278 1.450412
v -3.222698 0.818377 2.315829
v -2.272167 1.160278 2.299376
v -1.450750 5.886271 1.054032
v -1.785485 6.378083 0.648681
v -1.168676 6.378083 1.497641
v 0.486682 1.160278 3.195780
v 1.186792 0.798760 3.767223
v 1.484698 1.160278 2.871505
v 0.554137 5.886271 1.705459
v 0.065186 6.378083 1.898548
v 1.063203 6.378083 1.574276
v 3.189760 1.160278 0.524688
v 3.937462 0.784804 0.000000
v 3.189761 1.160278 -0.524688
v 1.793225 5.886271 0.000000
v 1.825774 6.378083 0.524688
v 1.825773 6.378083 -0.524688
v 1.008709 -6.591817 -3.744357
v -0.114901 -7.224785 -4.247420
v 2.113511 -7.224783 -3.527931
v 1.452319 -0.353593 -4.949898
v 2.486691 -1.160278 -4.609955
v 0.258279 -1.160278 -5.329445
v -3.428177 -6.617607 -2.338098
v -4.255208 -7.224783 -1.452709
v -2.880990 -7.224785 -3.348665
v -4.409362 -0.397367 -3.086971
v -3.779806 -1.160278 -4.017393
v -5.154026 -1.160278 -2.121437
v -3.428177 -6.617607 2.338098
v -2.880990 -7.224783 3.348665
v -4.255208 -7.224783 1.452708
v -4.409361 -0.397367 3.086970
v -5.154026 -1.160278 2.121436
v -3.779805 -1.160278 4.017392
v 1.008708 -6.591817 3.744359
v 2.113511 -7.224783 3.527932
v -0.114901 -7.224783 4.247423
v 1.452318 -0.353593 4.949898
v 0.258278 -1.160278 5.329445
v 2.486690 -1.160278 4.609955
v 3.702532 -6.574041 0.000000
v 3.826082 -7.224783 -1.170780
v 3.826082 -7.224783 1.170780
v 5.018233 -0.322452 0.000000
v 4.985398 -1.160278 1.170780
v 4.985398 -1.160278 -1.170780
v 2.460192 2.721820 -7.887932
v 3.443284 3.914830 -4.932064
v 0.149830 3.914830 -6.002172
v -6.592310 2.864614 -4.719105
v -3.455561 3.992887 -4.664809
v -5.491025 3.992887 -1.863230
v -6.592312 2.864613 4.719105
v -5.491028 3.992884 1.863232
v -3.455561 3.992884 4.664812
v 2.460195 2.721819 7.887932
v 0.149833 3.914828 6.002171
v 3.443288 3.914828 4.932060
v 8.371719 2.617565 0.000002
v 5.904305 3.856629 1.731473
v 5.904307 3.856629 -1.731470
v 3.054989 6.761720 -9.730815
v 3.649785 10.801619 -11.573694
v 4.038081 7.964465 -6.753432
v 4.632877 12.014099 -8.574800
v 0.744627 7.961484 -7.830125
v 1.339424 12.008139 -9.658080
v -8.049459 6.964532 -5.785909
v -9.506606 11.064449 -6.852712
v -4.912709 8.093424 -5.729211
v -6.369857 12.193963 -6.793613
v -6.948173 8.098451 -2.908157
v -8.405321 12.204014 -3.953084
v -8.049461 6.964530 5.785909
v -9.506607 11.064446 6.852711
v -6.948175 8.098447 2.908158
v -8.405323 12.204011 3.953085
v -4.912709 8.093422 5.729213
v -6.369857 12.193957 6.793615
v 3.054993 6.761719 9.730814
v 3.649791 10.801619 11.573693
v 0.744631 7.961483 7.830124
v 1.339429 12.008139 9.658076
v 4.038085 7.964464 6.753427
v 4.632883 12.014099 8.574794
v 10.382198 6.621135 0.000002
v 12.392677 10.624708 0.000003
v 7.914784 7.860201 1.744312
v 9.925262 11.863772 1.757150
v 7.914784 7.860201 -1.744307
v 9.925263 11.863772 -1.757144
v 2.604848 15.433098 -6.093339
v 3.122428 16.071446 -4.514475
v 1.388486 16.068308 -5.084802
v -4.321750 15.571472 -3.607828
v -2.670309 16.166141 -3.576713
v -3.741943 16.171433 -2.081227
v -4.321751 15.571470 3.607827
v -3.741945 16.171431 2.081226
v -2.670309 16.166137 3.576713
v 2.604852 15.433098 6.093337
v 1.388488 16.068308 5.084800
v 3.122431 16.071446 4.514473
v 7.207821 15.339958 0.000001
v 5.908772 15.992302 0.925107
v 5.908772 15.992302 -0.925104
vt 0.018748 0.837495
vt 0.181252 0.837495
vt 0.100000 1.000000
vt 0.218748 0.837495
vt 0.381252 0.837495
vt 0.300000 1.000000
vt 0.418748 0.837495
vt 0.581252 0.837495
vt 0.500000 1.000000
vt 0.618748 0.837495
vt 0.781252 0.837495
vt 0.700000 1.000000
vt 0.818748 0.837495
vt 0.950005 0.800000
vt 0.981252 0.837495
vt 0.900000 1.000000
vt 0.969101 0.600000
vt 0.000000 0.604548
vt 0.049995 0.800000
vt 0.169101 0.600000
vt 0.249995 0.800000
vt 0.369101 0.600000
vt 0.449995 0.800000
vt 0.569101 0.600000
vt 0.649995 0.800000
vt 0.769101 0.600000
vt 0.849995 0.800000
vt 0.000000 0.600000
vt 0.030899 0.600000
vt 0.000000 0.800000
vt 0.230899 0.600000
vt 0.150005 0.800000
vt 0.430899 0.600000
vt 0.350005 0.800000
vt 0.630899 0.600000
vt 0.550005 0.800000
vt 0.830899 0.600000
vt 0.750005 0.800000
vt 0.100000 0.000000
vt 0.000000 0.469525
vt 0.000000 0.568842
vt 0.219436 0.161128
vt 0.300000 0.000000
vt 0.200000 0.465753
vt 0.200000 0.570533
vt 0.419436 0.161129
vt 0.500000 0.000000
vt 0.400000 0.465752
vt 0.400000 0.570533
vt 0.620261 0.159477
vt 0.700000 0.000000
vt 0.979739 0.159477
vt 0.820830 0.158339
vt 0.900000 0.000000
vt 0.600000 0.469525
vt 0.600000 0.568842
vt 0.800000 0.472209
vt 0.959575 0.400000
vt 1.000000 0.469525
vt 1.000000 0.568842
vt 0.800000 0.567639
vt 0.950260 0.200000
vt 0.000000 0.200000
vt 0.040632 0.400000
vt 0.150212 0.200000
vt 0.240591 0.400000
vt 0.350056 0.200000
vt 0.440465 0.400000
vt 0.550005 0.200000
vt 0.640425 0.400000
vt 0.750135 0.200000
vt 0.840527 0.400000
vt 0.020261 0.159477
vt 0.049995 0.200000
vt 0.000000 0.347211
vt 0.180564 0.161129
vt 0.249944 0.200000
vt 0.159536 0.400000
vt 0.380564 0.161128
vt 0.449789 0.200000
vt 0.359409 0.400000
vt 0.579739 0.159477
vt 0.649740 0.200000
vt 0.559368 0.400000
vt 0.779170 0.158339
vt 0.849865 0.200000
vt 0.759473 0.400000
vt 0.000000 0.600000
vt 0.000000 0.568842
vt 0.030899 0.600000
vt 0.169101 0.600000
vt 0.200000 0.570533
vt 0.230899 0.600000
vt 0.369101 0.600000
vt 0.400000 0.570533
vt 0.430899 0.600000
vt 0.569101 0.600000
vt 0.600000 0.568842
vt 0.630899 0.600000
vt 0.769101 0.600000
vt 0.800000 0.567639
vt 0.830899 0.600000
vt 0.000000 0.600000
vt 0.000000 0.600000
vt 0.000000 0.568842
vt 0.000000 0.568842
vt 0.030899 0.600000
vt 0.030899 0.600000
vt 0.169101 0.600000
vt 0.169101 0.600000
vt 0.200000 0.570533
vt 0.200000 0.570533
vt 0.230899 0.600000
vt 0.230899 0.600000
vt 0.369101 0.600000
vt 0.369101 0.600000
vt 0.400000 0.570533
vt 0.400000 0.570533
vt 0.430899 0.600000
vt 0.430899 0.600000
vt 0.569101 0.600000
vt 0.569101 0.600000
vt 0.600000 0.568842
vt 0.600000 0.568842
vt 0.630899 0.600000
vt 0.630899 0.600000
vt 0.769101 0.600000
vt 0.769101 0.600000
vt 0.800000 0.567639
vt 0.800000 0.567639
vt 0.830899 0.600000
vt 0.830899 0.600000
vt 0.000000 0.600000
vt 0.000000 0.568842
vt 0.030899 0.600000
vt 0.169101 0.600000
vt 0.200000 0.570533
vt 0.230899 0.600000
vt 0.369101 0.600000
vt 0.400000 0.570533
vt 0.430899 0.600000
vt 0.569101 0.600000
vt 0.600000 0.568842
vt 0.630899 0.600000
vt 0.769101 0.600000
vt 0.800000 0.567639
vt 0.830899 0.600000
vn -0.305568 -0.148990 -0.940442
vn -0.305568 -0.148990 -0.940442
vn -0.305568 -0.148990 -0.940442
vn -0.305568 -0.148990 -0.940442
vn -0.989195 -0.146608 0.000000
vn -0.989195 -0.146608 0.000000
vn -0.989195 -0.146608 0.000000
vn -0.989195 -0.146608 0.000000
vn -0.305568 -0.148989 0.940441
vn -0.305568 -0.148989 0.940442
vn -0.305568 -0.148989 0.940441
vn -0.305568 -0.148989 0.940441
vn 0.799512 -0.152838 0.580880
vn 0.799512 -0.152838 0.580880
vn 0.799512 -0.152838 0.580880
vn 0.799512 -0.152838 0.580880
vn 0.799512 -0.152838 -0.580880
vn 0.799512 -0.152838 -0.580880
vn 0.799512 -0.152838 -0.580880
vn 0.799512 -0.152838 -0.580880
vn -0.302330 0.206909 -0.930476
vn -0.302330 0.206909 -0.930476
vn -0.302330 0.206909 -0.930476
vn -0.302330 0.206909 -0.930476
vn -0.978360 0.206909 -0.000000
vn -0.978360 0.206909 -0.000000
vn -0.978360 0.206909 -0.000000
vn -0.978360 0.206909 -0.000000
vn -0.302330 0.206909 0.930476
vn -0.302330 0.206909 0.930476
vn -0.302330 0.206909 0.930476
vn -0.302330 0.206909 0.930476
vn 0.791510 0.206909 0.575066
vn 0.791510 0.206909 0.575066
vn 0.791510 0.206909 0.575066
vn 0.791510 0.206909 0.575066
vn 0.791510 0.206909 -0.575066
vn 0.791510 0.206909 -0.575066
vn 0.791510 0.206909 -0.575066
vn 0.791510 0.206909 -0.575066
vn 0.255462 0.562656 0.786230
vn 0.255462 0.562656 0.786230
vn 0.255462 0.562656 0.786230
vn 0.255462 0.562656 0.786230
vn 0.255462 0.562656 0.786230
vn 0.826690 0.562657 0.000000
vn 0.826690 0.562657 0.000000
vn 0.826690 0.562657 0.000000
vn 0.826690 0.562657 0.000000
vn 0.826690 0.562657 0.000000
vn 0.255461 0.562656 -0.786230
vn 0.255461 0.562656 -0.786230
vn 0.255461 0.562656 -0.786230
vn 0.255461 0.562656 -0.786230
vn 0.255461 0.562656 -0.786230
vn -0.668807 0.562657 -0.485916
vn -0.668807 0.562657 -0.485916
vn -0.668807 0.562657 -0.485916
vn -0.668807 0.562657 -0.485916
vn -0.668807 0.562657 -0.485916
vn -0.668807 0.562657 0.485916
vn -0.668807 0.562657 0.485916
vn -0.668807 0.562657 0.485916
vn -0.668807 0.562657 0.485916
vn -0.668807 0.562657 0.485916
vn 0.298969 0.252912 -0.920137
vn 0.298969 0.252912 -0.920137
vn 0.298969 0.252912 -0.920138
vn 0.298969 0.252912 -0.920138
vn -0.782715 0.252912 -0.568677
vn -0.782715 0.252912 -0.568677
vn -0.782715 0.252912 -0.568677
vn -0.782715 0.252912 -0.568677
vn -0.782715 0.252912 0.568677
vn -0.782715 0.252912 0.568677
vn -0.782715 0.252912 0.568677
vn -0.782715 0.252912 0.568677
vn 0.298969 0.252912 0.920137
vn 0.298969 0.252912 0.920137
vn 0.298969 0.252912 0.920137
vn 0.298969 0.252912 0.920137
vn 0.967489 0.252911 -0.000000
vn 0.967489 0.252911 -0.000000
vn 0.967489 0.252911 -0.000000
vn 0.967489 0.252911 -0.000000
vn 0.132766 0.902999 -0.408614
vn 0.132766 0.902999 -0.408614
vn 0.132766 0.902999 -0.408614
vn -0.308340 0.066030 0.948982
vn -0.308340 0.066030 0.948982
vn -0.308340 0.066030 0.948982
vn -0.325255 0.915623 -0.236313
vn -0.325255 0.915623 -0.236313
vn -0.325255 0.915623 -0.236313
vn 0.807249 0.066031 0.586505
vn 0.807249 0.066031 0.586505
vn 0.807249 0.066031 0.586505
vn -0.325254 0.915623 0.236312
vn -0.325254 0.915623 0.236312
vn -0.325254 0.915624 0.236312
vn 0.807249 0.066031 -0.586505
vn 0.807249 0.066031 -0.586505
vn 0.807249 0.066031 -0.586505
vn 0.132766 0.902999 0.408614
vn 0.132766 0.902999 0.408614
vn 0.132766 0.902999 0.408614
vn -0.308340 0.066032 -0.948982
vn -0.308340 0.066032 -0.948982
vn -0.308340 0.066032 -0.948982
vn 0.448765 0.893650 0.000000
vn 0.448765 0.893650 0.000000
vn 0.448765 0.893650 0.000000
vn -0.997817 0.066035 0.000001
vn -0.997817 0.066035 0.000001
vn -0.997817 0.066035 0.000001
vn 0.696272 -0.516462 -0.498471
vn 0.696272 -0.516462 -0.498471
vn 0.696272 -0.516462 -0.498471
vn 0.696272 -0.516462 -0.498471
vn 0.696272 -0.516462 -0.498471
vn -0.229134 0.670960 -0.705202
vn -0.229134 0.670960 -0.705202
vn -0.229134 0.670960 -0.705202
vn -0.229134 0.670960 -0.705202
vn -0.229134 0.670960 -0.705202
vn -0.229134 0.670960 -0.705202
vn -0.229134 0.670960 -0.705202
vn -0.229134 0.670960 -0.705202
vn -0.251106 -0.541685 -0.802199
vn -0.251106 -0.541685 -0.802199
vn -0.251106 -0.541685 -0.802199
vn -0.251106 -0.541685 -0.802199
vn -0.251106 -0.541685 -0.802199
vn -0.715613 0.698497 -0.000000
vn -0.715613 0.698497 -0.000000
vn -0.715613 0.698497 -0.000000
vn -0.715613 0.698497 -0.000000
vn -0.715613 0.698497 -0.000000
vn -0.715613 0.698497 -0.000000
vn -0.715613 0.698497 -0.000000
vn -0.715613 0.698497 -0.000000
vn -0.830609 -0.556856 0.000000
vn -0.830609 -0.556856 0.000000
vn -0.830609 -0.556856 0.000000
vn -0.830609 -0.556856 0.000000
vn -0.830609 -0.556856 0.000000
vn -0.229134 0.670960 0.705202
vn -0.229134 0.670960 0.705202
vn -0.229134 0.670960 0.705202
vn -0.229134 0.670960 0.705202
vn -0.229134 0.670960 0.705202
vn -0.229134 0.670960 0.705202
vn -0.229134 0.670960 0.705202
vn -0.229134 0.670960 0.705202
vn -0.251107 -0.541685 0.802199
vn -0.251107 -0.541685 0.802199
vn -0.251107 -0.541685 0.802199
vn -0.251107 -0.541685 0.802199
vn -0.251107 -0.541685 0.802199
vn 0.634924 0.619737 0.461299
vn 0.634924 0.619737 0.461299
vn 0.634924 0.619737 0.461299
vn 0.634924 0.619737 0.461299
vn 0.634924 0.619737 0.461299
vn 0.634924 0.619737 0.461299
vn 0.634924 0.619737 0.461299
vn 0.634924 0.619737 0.461299
vn 0.696272 -0.516462 0.498471
vn 0.696272 -0.516462 0.498471
vn 0.696272 -0.516462 0.498471
vn 0.696272 -0.516462 0.498471
vn 0.696272 -0.516462 0.498471
vn 0.634924 0.619737 -0.461299
vn 0.634924 0.619737 -0.461299
vn 0.634924 0.619737 -0.461299
vn 0.634924 0.619737 -0.461299
vn 0.634924 0.619737 -0.461299
vn 0.634924 0.619737 -0.461299
vn 0.634924 0.619737 -0.461299
vn 0.634924 0.619737 -0.461299
vn 0.301925 -0.185423 -0.935125
vn 0.301925 -0.185423 -0.935125
vn 0.301925 -0.185423 -0.935125
vn 0.301925 -0.185423 -0.935125
vn -0.796212 -0.181643 -0.577107
vn -0.796212 -0.181643 -0.577107
vn -0.796212 -0.181643 -0.577107
vn -0.796212 -0.181643 -0.577107
vn -0.796212 -0.181643 0.577107
vn -0.796212 -0.181643 0.577107
vn -0.796212 -0.181643 0.577107
vn -0.796212 -0.181643 0.577107
vn 0.301925 -0.185423 0.935125
vn 0.301925 -0.185423 0.935125
vn 0.301925 -0.185423 0.935125
vn 0.301925 -0.185423 0.935125
vn 0.982214 -0.187764 0.000000
vn 0.982214 -0.187764 0.000000
vn 0.982940 -0.183929 0.000000
vn 0.982940 -0.183929 0.000000
vn -0.300639 -0.206366 0.931144
vn -0.300639 -0.206366 0.931144
vn -0.300639 -0.206366 0.931144
vn 0.307246 -0.007048 -0.951604
vn 0.307246 -0.007048 -0.951604
vn 0.307246 -0.007048 -0.951604
vn 0.786043 -0.239870 0.569736
vn 0.786043 -0.239870 0.569736
vn 0.786043 -0.239870 0.569736
vn -0.808766 0.047525 -0.586207
vn -0.808766 0.047525 -0.586207
vn -0.808766 0.047525 -0.586207
vn 0.786043 -0.239870 -0.569736
vn 0.786043 -0.239870 -0.569736
vn 0.786043 -0.239870 -0.569736
vn -0.808766 0.047524 0.586207
vn -0.808766 0.047524 0.586207
vn -0.808766 0.047524 0.586207
vn -0.300639 -0.206367 -0.931144
vn -0.300639 -0.206367 -0.931144
vn -0.300639 -0.206367 -0.931144
vn 0.307245 -0.007047 0.951604
vn 0.307245 -0.007047 0.951604
vn 0.307245 -0.007047 0.951604
vn -0.982450 -0.186528 0.000000
vn -0.982450 -0.186528 0.000000
vn -0.982450 -0.186528 0.000000
vn 0.999233 -0.039161 0.000000
vn 0.804582 -0.593172 -0.028187
vn 0.804582 -0.593172 -0.028187
vn 0.925569 -0.337997 -0.170531
vn 0.913273 -0.378662 -0.150157
vn -0.677034 -0.564217 -0.472530
vn -0.677034 -0.564217 -0.472530
vn -0.695143 -0.354559 -0.625352
vn -0.693326 -0.312739 -0.649225
vn -0.226153 0.681470 0.696027
vn -0.226153 0.681470 0.696027
vn -0.266392 0.510467 0.817593
vn -0.266309 0.510909 0.817344
vn 0.218733 -0.569995 -0.791999
vn 0.218733 -0.569995 -0.791999
vn 0.130225 -0.315997 -0.939780
vn 0.143819 -0.354672 -0.923863
vn -0.679483 -0.554088 0.480927
vn -0.679483 -0.554088 0.480927
vn -0.824663 -0.340527 0.451633
vn -0.844144 -0.301247 0.443476
vn 0.622882 0.638136 0.452549
vn 0.622882 0.638136 0.452549
vn 0.712264 0.475934 0.515914
vn 0.712184 0.476115 0.515858
vn -0.679482 -0.554088 -0.480927
vn -0.679482 -0.554088 -0.480927
vn -0.844144 -0.301247 -0.443476
vn -0.824663 -0.340527 -0.451632
vn 0.218733 -0.569996 0.791998
vn 0.218733 -0.569996 0.791998
vn 0.143819 -0.354673 0.923863
vn 0.130224 -0.315998 0.939780
vn 0.622881 0.638137 -0.452549
vn 0.622881 0.638137 -0.452549
vn 0.712183 0.476115 -0.515858
vn 0.712263 0.475934 -0.515914
vn -0.677034 -0.564216 0.472530
vn -0.677034 -0.564216 0.472530
vn -0.693326 -0.312738 0.649225
vn -0.695142 -0.354559 0.625352
vn 0.804581 -0.593173 0.028187
vn 0.804581 -0.593173 0.028187
vn 0.913273 -0.378663 0.150156
vn 0.925569 -0.337997 0.170531
vn -0.226153 0.681470 -0.696027
vn -0.226153 0.681470 -0.696027
vn -0.266310 0.510909 -0.817344
vn -0.266393 0.510467 -0.817593
vn 0.243854 -0.589990 0.769706
vn 0.243854 -0.589990 0.769706
vn 0.421355 -0.339407 0.840989
vn 0.395839 -0.381686 0.835241
vn 0.243854 -0.589990 -0.769706
vn 0.243854 -0.589989 -0.769706
vn 0.395839 -0.381686 -0.835241
vn 0.421356 -0.339407 -0.840989
vn -0.704725 0.709480 -0.000000
vn -0.704725 0.709480 -0.000000
vn -0.844794 0.535092 -0.000000
vn -0.844794 0.535092 -0.000000
vn 0.946916 -0.237425 -0.216747
vn 0.946916 -0.237425 -0.216747
vn 0.947218 -0.237055 -0.215831
vn 0.947218 -0.237055 -0.215831
vn -0.684674 -0.215362 -0.696305
vn -0.684675 -0.215361 -0.696304
vn -0.685987 -0.214678 -0.695223
vn -0.685987 -0.214678 -0.695223
vn -0.281131 0.428381 0.858752
vn -0.281130 0.428381 0.858752
vn -0.282081 0.428380 0.858441
vn -0.282081 0.428380 0.858441
vn 0.096097 -0.218240 -0.971152
vn 0.096097 -0.218240 -0.971152
vn 0.096445 -0.218115 -0.971146
vn 0.096445 -0.218115 -0.971146
vn -0.884065 -0.206027 0.419501
vn -0.884065 -0.206027 0.419502
vn -0.884472 -0.206446 0.418436
vn -0.884472 -0.206446 0.418436
vn 0.743050 0.401510 0.535413
vn 0.743051 0.401510 0.535412
vn 0.744092 0.401508 0.533965
vn 0.744092 0.401508 0.533966
vn -0.884065 -0.206027 -0.419502
vn -0.884065 -0.206028 -0.419501
vn -0.884472 -0.206446 -0.418436
vn -0.884472 -0.206446 -0.418436
vn 0.096096 -0.218241 0.971152
vn 0.096096 -0.218241 0.971152
vn 0.096444 -0.218115 0.971146
vn 0.096444 -0.218115 0.971146
vn 0.743051 0.401510 -0.535412
vn 0.743050 0.401510 -0.535413
vn 0.744091 0.401508 -0.533966
vn 0.744092 0.401508 -0.533966
vn -0.684675 -0.215361 0.696304
vn -0.684674 -0.215362 0.696305
vn -0.685987 -0.214677 0.695223
vn -0.685987 -0.214677 0.695223
vn 0.946916 -0.237425 0.216747
vn 0.946916 -0.237425 0.216746
vn 0.947218 -0.237055 0.215831
vn 0.947218 -0.237055 0.215830
vn -0.281131 0.428381 -0.858752
vn -0.281132 0.428381 -0.858752
vn -0.282081 0.428380 -0.858441
vn -0.282081 0.428380 -0.858441
vn 0.476754 -0.240768 0.845421
vn 0.476755 -0.240768 0.845420
vn 0.478008 -0.241396 0.844533
vn 0.478008 -0.241396 0.844533
vn 0.476755 -0.240768 -0.845420
vn 0.476754 -0.240767 -0.845421
vn 0.478008 -0.241396 -0.844533
vn 0.478008 -0.241396 -0.844533
vn -0.893650 0.448765 -0.000000
vn -0.893650 0.448765 -0.000000
vn -0.893650 0.448765 -0.000000
vn -0.893650 0.448765 -0.000000
vn 0.574580 0.675850 -0.461610
vn 0.574580 0.675850 -0.461610
vn 0.574580 0.675850 -0.461610
vn 0.574580 0.675851 -0.461610
vn -0.156759 0.739402 -0.654761
vn -0.156758 0.739402 -0.654761
vn -0.156759 0.739402 -0.654761
vn -0.156759 0.739402 -0.654761
vn -0.212485 -0.729603 0.650023
vn -0.212485 -0.729603 0.650023
vn -0.212485 -0.729603 0.650023
vn -0.212485 -0.729603 0.650023
vn -0.255048 0.740804 -0.621417
vn -0.255048 0.740804 -0.621417
vn -0.255048 0.740804 -0.621417
vn -0.255048 0.740804 -0.621417
vn -0.631712 0.772581 -0.063702
vn -0.631712 0.772581 -0.063702
vn -0.631712 0.772581 -0.063702
vn -0.631712 0.772581 -0.063702
vn 0.511673 -0.775716 0.369399
vn 0.511673 -0.775716 0.369399
vn 0.511673 -0.775716 0.369399
vn 0.511673 -0.775716 0.369399
vn -0.631712 0.772581 0.063702
vn -0.631712 0.772581 0.063702
vn -0.631712 0.772581 0.063702
vn -0.631712 0.772581 0.063702
vn -0.255048 0.740803 0.621419
vn -0.255048 0.740803 0.621419
vn -0.255048 0.740803 0.621419
vn -0.255048 0.740803 0.621419
vn 0.511673 -0.775715 -0.369400
vn 0.511673 -0.775715 -0.369400
vn 0.511673 -0.775715 -0.369400
vn 0.511673 -0.775715 -0.369400
vn -0.156759 0.739401 0.654761
vn -0.156759 0.739401 0.654761
vn -0.156759 0.739401 0.654761
vn -0.156759 0.739401 0.654761
vn 0.574580 0.675850 0.461610
vn 0.574580 0.675850 0.461610
vn 0.574580 0.675850 0.461610
vn 0.574580 0.675850 0.461610
vn -0.212485 -0.729603 -0.650023
vn -0.212485 -0.729603 -0.650023
vn -0.212485 -0.729603 -0.650023
vn -0.212485 -0.729603 -0.650023
vn 0.619634 0.681345 0.389645
vn 0.619634 0.681345 0.389645
vn 0.619634 0.681345 0.389645
vn 0.619634 0.681345 0.389645
vn 0.619634 0.681345 -0.389645
vn 0.619634 0.681345 -0.389645
vn 0.619634 0.681345 -0.389645
vn 0.619634 0.681345 -0.389645
vn -0.716766 -0.697314 -0.000000
vn -0.716766 -0.697314 -0.000000
vn -0.716766 -0.697314 -0.000000
vn -0.716766 -0.697314 -0.000000
s off
g star
usemtl initialShadingGroup
f 38/64/1 34/74/2 41/65/3 43/78/4
f 44/66/5 40/77/6 47/67/7 49/81/8
f 50/68/9 46/80/10 53/69/11 55/84/12
f 56/70/13 52/83/14 59/71/15 61/87/16
f 62/72/17 58/86/18 35/62/19 37/58/20
f 8/19/21 5/29/22 9/20/23 13/32/24
f 14/21/25 11/31/26 15/22/27 19/34/28
f 20/23/29 17/33/30 21/24/31 25/36/32
f 26/25/33 23/35/34 27/26/35 31/38/36
f 32/27/37 29/37/38 3/17/39 7/14/40
f 6/1/41 8/19/42 13/32/43 12/2/44 2/3/45
f 12/4/46 14/21/47 19/34/48 18/5/49 2/6/50
f 18/7/51 20/23/52 25/36/53 24/8/54 2/9/55
f 24/10/56 26/25/57 31/38/58 30/11/59 2/12/60
f 30/13/61 32/27/62 7/14/63 6/15/64 2/16/65
f 3/18/66 5/29/67 8/19/68 7/30/69
f 9/20/70 11/31/71 14/21/72 13/32/73
f 15/22/74 17/33/75 20/23/76 19/34/77
f 21/24/78 23/35/79 26/25/80 25/36/81
f 27/26/82 29/37/83 32/27/84 31/38/85
f 109/133/86 108/134/87 110/135/88
f 6/1/89 7/30/90 8/19/91
f 112/136/92 111/137/93 113/138/94
f 12/4/95 13/32/96 14/21/97
f 115/139/98 114/140/99 116/141/100
f 18/5/101 19/34/102 20/23/103
f 118/142/104 117/143/105 119/144/106
f 24/10/107 25/36/108 26/25/109
f 121/145/110 120/146/111 122/147/112
f 30/11/113 31/38/114 32/27/115
f 33/52/116 35/62/117 58/86/118 57/53/119 1/54/120
f 36/40/121 38/64/122 43/78/123 42/44/124 10/45/125 9/20/126 5/29/127 4/41/128
f 39/76/129 41/65/130 34/74/131 33/73/132 1/39/133
f 42/44/134 44/66/135 49/81/136 48/48/137 16/49/138 15/22/139 11/31/140 10/45/141
f 45/79/142 47/67/143 40/77/144 39/42/145 1/43/146
f 48/48/147 50/68/148 55/84/149 54/55/150 22/56/151 21/24/152 17/33/153 16/49/154
f 51/82/155 53/69/156 46/80/157 45/46/158 1/47/159
f 54/55/160 56/70/161 61/87/162 60/57/163 28/61/164 27/26/165 23/35/166 22/56/167
f 57/85/168 59/71/169 52/83/170 51/50/171 1/51/172
f 60/57/173 62/72/174 37/58/175 36/59/176 4/60/177 3/17/178 29/37/179 28/61/180
f 35/63/181 34/74/182 38/64/183 37/75/184
f 41/65/185 40/77/186 44/66/187 43/78/188
f 47/67/189 46/80/190 50/68/191 49/81/192
f 53/69/193 52/83/194 56/70/195 55/84/196
s 1
f 59/71/197 58/86/198 62/72/199 61/87/200
s off
f 33/73/201 34/74/202 35/63/203
f 36/40/204 37/75/205 38/64/206
f 39/76/207 40/77/208 41/65/209
f 42/44/210 43/78/211 44/66/212
f 45/79/213 46/80/214 47/67/215
f 48/48/216 49/81/217 50/68/218
f 51/82/219 52/83/220 53/69/221
f 54/55/222 55/84/223 56/70/224
f 57/85/225 58/86/226 59/71/227
s 1
f 60/57/228 61/87/200 62/72/199
s 2
f 3/28/229 4/41/230 63/89/231 64/88/232
s 3
f 4/41/233 5/29/234 65/90/235 63/89/236
s 4
f 5/29/237 3/28/238 64/88/239 65/90/240
s 5
f 9/20/241 10/45/242 66/92/243 67/91/244
s 6
f 10/45/245 11/31/246 68/93/247 66/92/248
s 7
f 11/31/249 9/20/250 67/91/251 68/93/252
s 8
f 15/22/253 16/49/254 69/95/255 70/94/256
s 9
f 16/49/257 17/33/258 71/96/259 69/95/260
s 10
f 17/33/261 15/22/262 70/94/263 71/96/264
s 11
f 21/24/265 22/56/266 72/98/267 73/97/268
s 12
f 22/56/269 23/35/270 74/99/271 72/98/272
s 13
f 23/35/273 21/24/274 73/97/275 74/99/276
s 14
f 27/26/277 28/61/278 75/101/279 76/100/280
s 15
f 28/61/281 29/37/282 77/102/283 75/101/284
s 16
f 29/37/285 27/26/286 76/100/287 77/102/288
s 2
f 64/88/232 63/89/231 78/105/289 80/103/290
f 80/103/290 78/105/289 79/106/291 81/104/292
s 3
f 63/89/236 65/90/235 82/107/293 78/105/294
f 78/105/294 82/107/293 83/108/295 79/106/296
s 4
f 65/90/240 64/88/239 80/103/297 82/107/298
f 82/107/298 80/103/297 81/104/299 83/108/300
s 5
f 67/91/244 66/92/243 84/111/301 86/109/302
f 86/109/302 84/111/301 85/112/303 87/110/304
s 6
f 66/92/248 68/93/247 88/113/305 84/111/306
f 84/111/306 88/113/305 89/114/307 85/112/308
s 7
f 68/93/252 67/91/251 86/109/309 88/113/310
f 88/113/310 86/109/309 87/110/311 89/114/312
s 8
f 70/94/256 69/95/255 90/117/313 92/115/314
f 92/115/314 90/117/313 91/118/315 93/116/316
s 9
f 69/95/260 71/96/259 94/119/317 90/117/318
f 90/117/318 94/119/317 95/120/319 91/118/320
s 10
f 71/96/264 70/94/263 92/115/321 94/119/322
f 94/119/322 92/115/321 93/116/323 95/120/324
s 11
f 73/97/268 72/98/267 96/123/325 98/121/326
f 98/121/326 96/123/325 97/124/327 99/122/328
s 12
f 72/98/272 74/99/271 100/125/329 96/123/330
f 96/123/330 100/125/329 101/126/331 97/124/332
s 13
f 74/99/276 73/97/275 98/121/333 100/125/334
f 100/125/334 98/121/333 99/122/335 101/126/336
s 14
f 76/100/280 75/101/279 102/129/337 104/127/338
f 104/127/338 102/129/337 103/130/339 105/128/340
s 15
f 75/101/284 77/102/283 106/131/341 102/129/342
f 102/129/342 106/131/341 107/132/343 103/130/344
s 16
f 77/102/288 76/100/287 104/127/345 106/131/346
f 106/131/346 104/127/345 105/128/347 107/132/348
s off
f 81/104/349 79/106/350 108/134/351 109/133/352
f 79/106/353 83/108/354 110/135/355 108/134/356
f 83/108/357 81/104/358 109/133/359 110/135/360
f 87/110/361 85/112/362 111/137/363 112/136/364
f 85/112/365 89/114/366 113/138/367 111/137/368
f 89/114/369 87/110/370 112/136/371 113/138/372
f 93/116/373 91/118/374 114/140/375 115/139/376
f 91/118/377 95/120/378 116/141/379 114/140/380
f 95/120/381 93/116/382 115/139/383 116/141/384
f 99/122/385 97/124/386 117/143/387 118/142/388
f 97/124/389 101/126/390 119/144/391 117/143/392
f 101/126/393 99/122/394 118/142/395 119/144/396
f 105/128/397 103/130/398 120/146/399 121/145/400
f 103/130/401 107/132/402 122/147/403 120/146/404
f 107/132/405 105/128/406 121/145/407 122/147/408
