# This file uses centimeters as units for non-parametric coordinates.

mtllib 04.mtl
g default
v 4.888570 -13.172837 5.009762
v 5.882414 -13.172837 4.028164
v 5.483042 -13.172837 3.478476
v 4.242373 -13.172837 4.120347
v 3.874969 -13.172837 5.066734
v 7.307568 -0.734744 8.638484
v 11.586624 -1.928247 4.690293
v 9.310413 -1.724014 1.557356
v 4.359446 -1.724014 4.580742
v 2.821060 -1.724014 8.543434
v 6.705161 1.928248 7.809342
v 11.397855 0.734744 4.430474
v 8.244043 1.724014 2.845107
v 4.359446 1.724014 4.580742
v 3.489244 1.724014 9.463110
v 6.725349 10.981079 6.965268
v 9.004076 10.412482 4.828985
v 8.264369 8.572459 3.810863
v 5.528477 8.003861 5.317914
v 4.577311 9.492470 7.267442
v 4.874274 -13.172837 4.340697
v 5.390033 16.986062 3.670029
vt 0.548284 0.007647
vt 0.373591 0.064409
vt 0.373591 0.248091
vt 0.548284 0.304853
vt 0.656250 0.156250
vt 0.375000 0.312500
vt 0.425000 0.312500
vt 0.475000 0.312500
vt 0.525000 0.312500
vt 0.575000 0.312500
vt 0.625000 0.312500
vt 0.375000 0.437500
vt 0.425000 0.437500
vt 0.475000 0.437500
vt 0.525000 0.437500
vt 0.575000 0.437500
vt 0.625000 0.437500
vt 0.375000 0.562500
vt 0.425000 0.562500
vt 0.475000 0.562500
vt 0.525000 0.562500
vt 0.575000 0.562500
vt 0.625000 0.562500
vt 0.375000 0.687500
vt 0.425000 0.687500
vt 0.475000 0.687500
vt 0.525000 0.687500
vt 0.575000 0.687500
vt 0.625000 0.687500
vt 0.548284 0.695147
vt 0.373591 0.751909
vt 0.373591 0.935591
vt 0.548284 0.992353
vt 0.656250 0.843750
vt 0.500000 0.156250
vt 0.500000 0.843750
vn 0.601008 -0.337417 0.724527
vn 0.601008 -0.337417 0.724527
vn 0.632913 -0.205356 0.746492
vn 0.639537 -0.168656 0.750032
vn 0.749756 -0.346195 -0.563929
vn 0.749756 -0.346195 -0.563929
vn 0.756691 -0.203844 -0.621181
vn 0.754377 -0.144015 -0.640449
vn -0.509131 0.032838 -0.860063
vn -0.509131 0.032838 -0.860063
vn -0.498448 0.050033 -0.865474
vn -0.498526 0.049910 -0.865437
vn -0.931946 0.024079 -0.361798
vn -0.931946 0.024079 -0.361798
vn -0.946812 0.075108 -0.312898
vn -0.942609 0.058881 -0.328666
vn 0.045031 -0.287188 0.956815
vn 0.045031 -0.287188 0.956815
vn 0.093575 -0.206740 0.973911
vn 0.068285 -0.249063 0.966077
vn 0.641463 0.153013 0.751740
vn 0.638580 0.133807 0.757833
vn 0.582737 0.187025 -0.790847
vn 0.599221 0.200064 -0.775183
vn -0.457819 0.125669 -0.880119
vn -0.457748 0.125836 -0.880132
vn -0.953640 0.125071 -0.273730
vn -0.954122 0.125411 -0.271887
vn 0.263812 0.092295 0.960148
vn 0.259031 0.083815 0.962225
vn 0.632605 0.098439 0.768193
vn 0.632605 0.098439 0.768193
vn 0.527914 0.144901 -0.836846
vn 0.527914 0.144901 -0.836846
vn -0.445256 0.154737 -0.881932
vn -0.445256 0.154737 -0.881932
vn -0.951778 0.123776 -0.280711
vn -0.951778 0.123776 -0.280711
vn 0.296274 0.150907 0.943106
vn 0.296274 0.150907 0.943106
vn -0.000001 -1.000000 -0.000001
vn 0.000000 -1.000000 0.000000
vn 0.000000 -1.000000 0.000000
vn 0.000000 -1.000000 0.000000
vn 0.000001 -1.000000 0.000001
vn 0.000000 -1.000000 0.000000
vn 0.332038 0.509461 0.793851
vn 0.870856 0.488462 0.054910
vn -0.486162 0.562044 -0.669144
vn -0.102047 -0.051491 -0.993446
vn -0.695862 -0.139957 -0.704406
vn -0.934844 0.230882 0.269740
s 1
g pCylinder4
usemtl initialShadingGroup
f 1/6/1 2/7/2 7/13/3 6/12/4
s 2
f 2/7/5 3/8/6 8/14/7 7/13/8
s 3
f 3/8/9 4/9/10 9/15/11 8/14/12
s 4
f 4/9/13 5/10/14 10/16/15 9/15/16
s 5
f 5/10/17 1/11/18 6/17/19 10/16/20
s 1
f 6/12/4 7/13/3 12/19/21 11/18/22
s 2
f 7/13/8 8/14/7 13/20/23 12/19/24
s 3
f 8/14/12 9/15/11 14/21/25 13/20/26
s 4
f 9/15/16 10/16/15 15/22/27 14/21/28
s 5
f 10/16/20 6/17/19 11/23/29 15/22/30
s 1
f 11/18/22 12/19/21 17/25/31 16/24/32
s 2
f 12/19/24 13/20/23 18/26/33 17/25/34
s 3
f 13/20/26 14/21/25 19/27/35 18/26/36
s 4
f 14/21/28 15/22/27 20/28/37 19/27/38
s 5
f 15/22/30 11/23/29 16/29/39 20/28/40
s 6
f 2/2/41 1/1/42 21/35/43
f 3/3/44 2/2/41 21/35/43
f 4/4/45 3/3/44 21/35/43
f 5/5/46 4/4/45 21/35/43
f 1/1/42 5/5/46 21/35/43
s 7
f 16/33/47 17/32/48 22/36/49
f 17/32/48 18/31/50 22/36/49
f 18/31/50 19/30/51 22/36/49
f 19/30/51 20/34/52 22/36/49
f 20/34/52 16/33/47 22/36/49
g default
v -1.112183 -13.172837 -6.975084
v -2.493188 -13.172837 -6.765121
v -2.493187 -13.172837 -6.085669
v -1.112183 -13.172837 -5.875707
v -0.258675 -13.172837 -6.425395
v -0.936283 -0.734744 -11.332633
v -6.718801 -1.928247 -10.653645
v -6.718802 -1.724014 -6.781122
v -0.936284 -1.724014 -6.316989
v 2.637509 -1.724014 -8.618632
v -0.936283 1.928248 -10.307757
v -6.718801 0.734744 -10.332492
v -5.099169 1.724014 -7.196138
v -0.936284 1.724014 -6.316989
v 2.637509 1.724014 -9.755415
v -1.448751 10.981079 -9.636753
v -4.547955 10.412482 -9.247866
v -4.547956 8.572459 -7.989399
v -1.448751 8.003861 -7.600512
v 0.466662 9.492470 -8.618632
v -1.493883 -13.172837 -6.425395
v -2.305350 16.986062 -6.185970
vt 0.548284 0.007647
vt 0.373591 0.064409
vt 0.373591 0.248091
vt 0.548284 0.304853
vt 0.656250 0.156250
vt 0.375000 0.312500
vt 0.425000 0.312500
vt 0.475000 0.312500
vt 0.525000 0.312500
vt 0.575000 0.312500
vt 0.625000 0.312500
vt 0.375000 0.437500
vt 0.425000 0.437500
vt 0.475000 0.437500
vt 0.525000 0.437500
vt 0.575000 0.437500
vt 0.625000 0.437500
vt 0.375000 0.562500
vt 0.425000 0.562500
vt 0.475000 0.562500
vt 0.525000 0.562500
vt 0.575000 0.562500
vt 0.625000 0.562500
vt 0.375000 0.687500
vt 0.425000 0.687500
vt 0.475000 0.687500
vt 0.525000 0.687500
vt 0.575000 0.687500
vt 0.625000 0.687500
vt 0.548284 0.695147
vt 0.373591 0.751909
vt 0.373591 0.935591
vt 0.548284 0.992353
vt 0.656250 0.843750
vt 0.500000 0.156250
vt 0.500000 0.843750
vn -0.060360 -0.337417 -0.939418
vn -0.060360 -0.337417 -0.939418
vn -0.073260 -0.205356 -0.975941
vn -0.076539 -0.168656 -0.982699
vn -0.938034 -0.346195 0.015533
vn -0.938034 -0.346195 0.015533
vn -0.977297 -0.203844 0.057775
vn -0.986750 -0.144015 0.074722
vn -0.093637 0.032838 0.995065
vn -0.093637 0.032838 0.995065
vn -0.105460 0.050033 0.993164
vn -0.105375 0.049910 0.993179
vn 0.541301 0.024079 0.840484
vn 0.541301 0.024079 0.840484
vn 0.582070 0.075108 0.809662
vn 0.569402 0.058881 0.819948
vn 0.525971 -0.287188 -0.800548
vn 0.525971 -0.287188 -0.800548
vn 0.496746 -0.206740 -0.842913
vn 0.512602 -0.249063 -0.821710
vn -0.077093 0.153013 -0.985213
vn -0.071179 0.133807 -0.988448
vn -0.936292 0.187025 0.297285
vn -0.940421 0.200064 0.274923
vn -0.146937 0.125669 0.981130
vn -0.147002 0.125836 0.981099
vn 0.610617 0.125071 0.781988
vn 0.612090 0.125411 0.780780
vn 0.350933 0.092295 -0.931841
vn 0.356021 0.083815 -0.930712
vn -0.060256 0.098439 -0.993317
vn -0.060256 0.098439 -0.993317
vn -0.918977 0.144901 0.366722
vn -0.918977 0.144901 0.366722
vn -0.158167 0.154737 0.975213
vn -0.158167 0.154737 0.975213
vn 0.605006 0.123776 0.786541
vn 0.605006 0.123776 0.786541
vn 0.314653 0.150907 -0.937134
vn 0.314653 0.150907 -0.937134
vn 0.000000 -1.000000 0.000001
vn 0.000000 -1.000000 -0.000001
vn 0.000000 -1.000000 -0.000000
vn 0.000000 -1.000000 -0.000001
vn 0.000000 -1.000000 -0.000002
vn 0.000000 -1.000000 -0.000001
vn 0.197990 0.509461 -0.837406
vn -0.672261 0.488462 -0.556299
vn 0.000000 0.562044 0.827107
vn -0.501375 -0.051491 0.863696
vn 0.148924 -0.139957 0.978894
vn 0.914854 0.230882 0.331264
s 1
g pCylinder1
usemtl initialShadingGroup
f 23/42/53 24/43/54 29/49/55 28/48/56
s 2
f 24/43/57 25/44/58 30/50/59 29/49/60
s 3
f 25/44/61 26/45/62 31/51/63 30/50/64
s 4
f 26/45/65 27/46/66 32/52/67 31/51/68
s 5
f 27/46/69 23/47/70 28/53/71 32/52/72
s 1
f 28/48/56 29/49/55 34/55/73 33/54/74
s 2
f 29/49/60 30/50/59 35/56/75 34/55/76
s 3
f 30/50/64 31/51/63 36/57/77 35/56/78
s 4
f 31/51/68 32/52/67 37/58/79 36/57/80
s 5
f 32/52/72 28/53/71 33/59/81 37/58/82
s 1
f 33/54/74 34/55/73 39/61/83 38/60/84
s 2
f 34/55/76 35/56/75 40/62/85 39/61/86
s 3
f 35/56/78 36/57/77 41/63/87 40/62/88
s 4
f 36/57/80 37/58/79 42/64/89 41/63/90
s 5
f 37/58/82 33/59/81 38/65/91 42/64/92
s 6
f 24/38/93 23/37/94 43/71/95
f 25/39/96 24/38/93 43/71/95
f 26/40/97 25/39/96 43/71/95
f 27/41/98 26/40/97 43/71/95
f 23/37/94 27/41/98 43/71/95
s 7
f 38/69/99 39/68/100 44/72/101
f 39/68/100 40/67/102 44/72/101
f 40/67/102 41/66/103 44/72/101
f 41/66/103 42/70/104 44/72/101
f 42/70/104 38/69/99 44/72/101
g default
v -7.010656 -13.172837 -1.159028
v -7.237725 -13.172837 0.219268
v -6.591527 -13.172837 0.429230
v -5.965087 -13.172837 -0.819302
v -6.224123 -13.172837 -1.800899
v -11.100576 -0.734744 -2.672875
v -12.241717 -1.928247 3.036445
v -8.558729 -1.724014 4.233121
v -6.330415 -1.724014 -1.122955
v -7.415046 -1.724014 -5.233081
v -10.125861 1.928248 -2.356171
v -11.936281 0.734744 3.135687
v -8.452938 1.724014 2.564512
v -6.330415 1.724014 -1.122955
v -8.496190 1.724014 -5.584366
v -9.646059 10.981079 -1.661434
v -10.233913 10.412482 1.406258
v -9.037040 8.572459 1.795146
v -7.709479 8.003861 -1.032200
v -8.085874 9.492470 -3.168483
v -6.605824 -13.172837 -0.626146
v -6.628873 16.986062 0.219591
vt 0.548284 0.007647
vt 0.373591 0.064409
vt 0.373591 0.248091
vt 0.548284 0.304853
vt 0.656250 0.156250
vt 0.375000 0.312500
vt 0.425000 0.312500
vt 0.475000 0.312500
vt 0.525000 0.312500
vt 0.575000 0.312500
vt 0.625000 0.312500
vt 0.375000 0.437500
vt 0.425000 0.437500
vt 0.475000 0.437500
vt 0.525000 0.437500
vt 0.575000 0.437500
vt 0.625000 0.437500
vt 0.375000 0.562500
vt 0.425000 0.562500
vt 0.475000 0.562500
vt 0.525000 0.562500
vt 0.575000 0.562500
vt 0.625000 0.562500
vt 0.375000 0.687500
vt 0.425000 0.687500
vt 0.475000 0.687500
vt 0.525000 0.687500
vt 0.575000 0.687500
vt 0.625000 0.687500
vt 0.548284 0.695147
vt 0.373591 0.751909
vt 0.373591 0.935591
vt 0.548284 0.992353
vt 0.656250 0.843750
vt 0.500000 0.156250
vt 0.500000 0.843750
vn -0.912092 -0.337417 -0.232891
vn -0.912092 -0.337417 -0.232891
vn -0.950814 -0.205356 -0.231908
vn -0.958254 -0.168656 -0.230878
vn -0.275096 -0.346195 0.896923
vn -0.275096 -0.346195 0.896923
vn -0.247055 -0.203844 0.947318
vn -0.233858 -0.144015 0.961546
vn 0.917427 0.032838 0.396546
vn 0.917427 0.032838 0.396546
vn 0.911966 0.050033 0.407203
vn 0.912007 0.049910 0.407127
vn 0.966619 0.024079 -0.255083
vn 0.966619 0.024079 -0.255083
vn 0.949904 0.075108 -0.303382
vn 0.955772 0.058881 -0.288155
vn -0.598832 -0.287188 -0.747611
vn -0.598832 -0.287188 -0.747611
vn -0.648154 -0.206740 -0.732908
vn -0.623090 -0.249063 -0.741436
vn -0.960816 0.153013 -0.231128
vn -0.962065 0.133807 -0.237752
vn -0.006595 0.187025 0.982333
vn -0.029139 0.200064 0.979349
vn 0.887704 0.125669 0.442932
vn 0.887655 0.125836 0.442984
vn 0.932405 0.125071 -0.339083
vn 0.931712 0.125411 -0.340858
vn -0.777789 0.092295 -0.621712
vn -0.775143 0.083815 -0.626202
vn -0.963321 0.098439 -0.249645
vn -0.963321 0.098439 -0.249645
vn 0.064794 0.144901 0.987322
vn 0.064794 0.144901 0.987322
vn 0.878606 0.154737 0.451783
vn 0.878606 0.154737 0.451783
vn 0.935002 0.123776 -0.332341
vn 0.935002 0.123776 -0.332341
vn -0.794034 0.150907 -0.588843
vn -0.794034 0.150907 -0.588843
vn 0.000001 -1.000000 0.000000
vn -0.000001 -1.000000 -0.000000
vn -0.000000 -1.000000 -0.000000
vn -0.000001 -1.000000 -0.000000
vn -0.000002 -1.000000 -0.000001
vn -0.000001 -1.000000 -0.000000
vn -0.735238 0.509461 -0.447072
vn -0.736812 0.488462 0.467453
vn 0.786626 0.562044 0.255590
vn 0.666491 -0.051491 0.743733
vn 0.977004 -0.139957 0.160859
vn 0.597756 0.230882 -0.767712
s 1
g pCylinder2
usemtl initialShadingGroup
f 45/78/105 46/79/106 51/85/107 50/84/108
s 2
f 46/79/109 47/80/110 52/86/111 51/85/112
s 3
f 47/80/113 48/81/114 53/87/115 52/86/116
s 4
f 48/81/117 49/82/118 54/88/119 53/87/120
s 5
f 49/82/121 45/83/122 50/89/123 54/88/124
s 1
f 50/84/108 51/85/107 56/91/125 55/90/126
s 2
f 51/85/112 52/86/111 57/92/127 56/91/128
s 3
f 52/86/116 53/87/115 58/93/129 57/92/130
s 4
f 53/87/120 54/88/119 59/94/131 58/93/132
s 5
f 54/88/124 50/89/123 55/95/133 59/94/134
s 1
f 55/90/126 56/91/125 61/97/135 60/96/136
s 2
f 56/91/128 57/92/127 62/98/137 61/97/138
s 3
f 57/92/130 58/93/129 63/99/139 62/98/140
s 4
f 58/93/132 59/94/131 64/100/141 63/99/142
s 5
f 59/94/134 55/95/133 60/101/143 64/100/144
s 6
f 46/74/145 45/73/146 65/107/147
f 47/75/148 46/74/145 65/107/147
f 48/76/149 47/75/148 65/107/147
f 49/77/150 48/76/149 65/107/147
f 45/73/146 49/77/150 65/107/147
s 7
f 60/105/151 61/104/152 66/108/153
f 61/104/152 62/103/154 66/108/153
f 62/103/154 63/102/155 66/108/153
f 63/102/155 64/106/156 66/108/153
f 64/106/156 60/105/151 66/108/153
g default
v -3.301987 -13.172837 6.248014
v -2.061317 -13.172837 6.889886
v -1.661946 -13.172837 6.340197
v -2.655790 -13.172837 5.358600
v -3.669391 -13.172837 5.301627
v -6.005596 -0.734744 9.669954
v -0.928341 -1.928247 12.519520
v 1.347871 -1.724014 9.386584
v -3.057474 -1.724014 5.612213
v -7.301605 -1.724014 5.373660
v -5.403189 1.928248 8.840812
v -0.739572 0.734744 12.259702
v -0.206380 1.724014 8.770343
v -3.057474 1.724014 5.612213
v -7.969789 1.724014 6.293336
v -4.594188 10.981079 8.599179
v -1.858296 10.412482 10.106230
v -1.118587 8.572459 9.088109
v -3.397315 8.003861 6.951826
v -5.545353 9.492470 6.649651
v -2.670086 -13.172837 6.027665
v -1.872865 16.986062 6.310933
vt 0.548284 0.007647
vt 0.373591 0.064409
vt 0.373591 0.248091
vt 0.548284 0.304853
vt 0.656250 0.156250
vt 0.375000 0.312500
vt 0.425000 0.312500
vt 0.475000 0.312500
vt 0.525000 0.312500
vt 0.575000 0.312500
vt 0.625000 0.312500
vt 0.375000 0.437500
vt 0.425000 0.437500
vt 0.475000 0.437500
vt 0.525000 0.437500
vt 0.575000 0.437500
vt 0.625000 0.437500
vt 0.375000 0.562500
vt 0.425000 0.562500
vt 0.475000 0.562500
vt 0.525000 0.562500
vt 0.575000 0.562500
vt 0.625000 0.562500
vt 0.375000 0.687500
vt 0.425000 0.687500
vt 0.475000 0.687500
vt 0.525000 0.687500
vt 0.575000 0.687500
vt 0.625000 0.687500
vt 0.548284 0.695147
vt 0.373591 0.751909
vt 0.373591 0.935591
vt 0.548284 0.992353
vt 0.656250 0.843750
vt 0.500000 0.156250
vt 0.500000 0.843750
vn -0.503344 -0.337417 0.795484
vn -0.503344 -0.337417 0.795484
vn -0.514375 -0.205356 0.832614
vn -0.515695 -0.168656 0.840008
vn 0.768016 -0.346195 0.538796
vn 0.768016 -0.346195 0.538796
vn 0.824609 -0.203844 0.527700
vn 0.842218 -0.144015 0.519546
vn 0.660638 0.032838 -0.749986
vn 0.660638 0.032838 -0.749986
vn 0.669086 0.050033 -0.741499
vn 0.669026 0.049910 -0.741561
vn 0.056103 0.024079 -0.998135
vn 0.056103 0.024079 -0.998135
vn 0.005003 0.075108 -0.997163
vn 0.021298 0.058881 -0.998038
vn -0.896070 -0.287188 0.338499
vn -0.896070 -0.287188 0.338499
vn -0.897328 -0.206740 0.389950
vn -0.897693 -0.249063 0.363478
vn -0.516724 0.153013 0.842368
vn -0.523410 0.133807 0.841509
vn 0.932216 0.187025 0.309830
vn 0.922412 0.200064 0.330348
vn 0.695569 0.125669 -0.707384
vn 0.695603 0.125836 -0.707320
vn -0.034358 0.125071 -0.991553
vn -0.036260 0.125411 -0.991442
vn -0.831633 0.092295 0.547602
vn -0.835086 0.083815 0.543697
vn -0.535109 0.098439 0.839028
vn -0.535109 0.098439 0.839028
vn 0.959022 0.144901 0.243476
vn 0.959022 0.144901 0.243476
vn 0.701175 0.154737 -0.695995
vn 0.701175 0.154737 -0.695995
vn -0.027143 0.123776 -0.991939
vn -0.027143 0.123776 -0.991939
vn -0.805394 0.150907 0.573209
vn -0.805394 0.150907 0.573209
vn 0.000001 -1.000000 -0.000001
vn -0.000000 -1.000000 0.000000
vn -0.000000 -1.000000 0.000000
vn -0.000000 -1.000000 0.000000
vn -0.000001 -1.000000 0.000001
vn -0.000000 -1.000000 0.000000
vn -0.652392 0.509461 0.561100
vn 0.216886 0.488462 0.845201
vn 0.486161 0.562044 -0.669144
vn 0.913289 -0.051491 -0.404044
vn 0.454897 -0.139957 -0.879478
vn -0.545420 0.230882 -0.805736
s 1
g pCylinder3
usemtl initialShadingGroup
f 67/114/157 68/115/158 73/121/159 72/120/160
s 2
f 68/115/161 69/116/162 74/122/163 73/121/164
s 3
f 69/116/165 70/117/166 75/123/167 74/122/168
s 4
f 70/117/169 71/118/170 76/124/171 75/123/172
s 5
f 71/118/173 67/119/174 72/125/175 76/124/176
s 1
f 72/120/160 73/121/159 78/127/177 77/126/178
s 2
f 73/121/164 74/122/163 79/128/179 78/127/180
s 3
f 74/122/168 75/123/167 80/129/181 79/128/182
s 4
f 75/123/172 76/124/171 81/130/183 80/129/184
s 5
f 76/124/176 72/125/175 77/131/185 81/130/186
s 1
f 77/126/178 78/127/177 83/133/187 82/132/188
s 2
f 78/127/180 79/128/179 84/134/189 83/133/190
s 3
f 79/128/182 80/129/181 85/135/191 84/134/192
s 4
f 80/129/184 81/130/183 86/136/193 85/135/194
s 5
f 81/130/186 77/131/185 82/137/195 86/136/196
s 6
f 68/110/197 67/109/198 87/143/199
f 69/111/200 68/110/197 87/143/199
f 70/112/201 69/111/200 87/143/199
f 71/113/202 70/112/201 87/143/199
f 67/109/198 71/113/202 87/143/199
s 7
f 82/141/203 83/140/204 88/144/205
f 83/140/204 84/139/206 88/144/205
f 84/139/206 85/138/207 88/144/205
f 85/138/207 86/142/208 88/144/205
f 86/142/208 82/141/203 88/144/205
g default
v 6.241944 -13.172837 -3.162562
v 5.615504 -13.172837 -4.411094
v 4.969306 -13.172837 -4.201131
v 5.196374 -13.172837 -2.822836
v 5.982908 -13.172837 -2.180965
v 10.440575 -0.734744 -4.341828
v 8.007923 -1.928247 -9.631511
v 4.324935 -1.724014 -8.434836
v 5.670414 -1.724014 -2.791910
v 8.963770 -1.724014 -0.104278
v 9.465860 1.928248 -4.025124
v 7.702488 0.734744 -9.532269
v 5.220132 1.724014 -7.022721
v 5.670414 1.724014 -2.791910
v 10.044914 1.724014 -0.455563
v 8.669336 10.981079 -4.305158
v 7.341776 10.412482 -7.132504
v 6.144902 8.572459 -6.743617
v 6.732756 8.003861 -3.675925
v 8.292941 9.492470 -2.168876
v 5.601207 -13.172837 -3.355718
v 5.122743 16.986062 -4.053482
vt 0.548284 0.007647
vt 0.373591 0.064409
vt 0.373591 0.248091
vt 0.548284 0.304853
vt 0.656250 0.156250
vt 0.375000 0.312500
vt 0.425000 0.312500
vt 0.475000 0.312500
vt 0.525000 0.312500
vt 0.575000 0.312500
vt 0.625000 0.312500
vt 0.375000 0.437500
vt 0.425000 0.437500
vt 0.475000 0.437500
vt 0.525000 0.437500
vt 0.575000 0.437500
vt 0.625000 0.437500
vt 0.375000 0.562500
vt 0.425000 0.562500
vt 0.475000 0.562500
vt 0.525000 0.562500
vt 0.575000 0.562500
vt 0.625000 0.562500
vt 0.375000 0.687500
vt 0.425000 0.687500
vt 0.475000 0.687500
vt 0.525000 0.687500
vt 0.575000 0.687500
vt 0.625000 0.687500
vt 0.548284 0.695147
vt 0.373591 0.751909
vt 0.373591 0.935591
vt 0.548284 0.992353
vt 0.656250 0.843750
vt 0.500000 0.156250
vt 0.500000 0.843750
vn 0.874788 -0.337417 -0.347701
vn 0.874788 -0.337417 -0.347701
vn 0.905537 -0.205356 -0.371257
vn 0.910950 -0.168656 -0.376463
vn -0.304641 -0.346195 -0.887324
vn -0.304641 -0.346195 -0.887324
vn -0.356948 -0.203844 -0.911611
vn -0.375987 -0.144015 -0.915365
vn -0.975298 0.032838 0.218438
vn -0.975298 0.032838 0.218438
vn -0.977144 0.050033 0.206606
vn -0.977132 0.049910 0.206692
vn -0.632077 0.024079 0.774531
vn -0.632077 0.024079 0.774531
vn -0.590165 0.075108 0.803781
vn -0.603862 0.058881 0.794911
vn 0.923900 -0.287188 0.252846
vn 0.923900 -0.287188 0.252845
vn 0.955161 -0.206740 0.211960
vn 0.939895 -0.249063 0.233591
vn 0.913170 0.153013 -0.377767
vn 0.918074 0.133807 -0.373142
vn -0.572065 0.187025 -0.798601
vn -0.552073 0.200064 -0.809438
vn -0.978517 0.125669 0.163440
vn -0.978507 0.125836 0.163369
vn -0.555024 0.125071 0.822378
vn -0.553420 0.125411 0.823406
vn 0.994678 0.092295 0.045802
vn 0.995176 0.083815 0.050991
vn 0.926080 0.098439 -0.364259
vn 0.926080 0.098439 -0.364259
vn -0.632753 0.144901 -0.760676
vn -0.632753 0.144901 -0.760676
vn -0.976359 0.154737 0.150932
vn -0.976359 0.154737 0.150932
vn -0.561088 0.123776 0.818450
vn -0.561088 0.123776 0.818450
vn 0.988501 0.150907 0.009663
vn 0.988501 0.150907 0.009663
vn -0.000001 -1.000000 0.000000
vn 0.000001 -1.000000 -0.000000
vn 0.000000 -1.000000 -0.000000
vn 0.000001 -1.000000 -0.000000
vn 0.000002 -1.000000 -0.000001
vn 0.000001 -1.000000 -0.000000
vn 0.857603 0.509461 -0.070473
vn 0.321332 0.488462 -0.811265
vn -0.786626 0.562044 0.255590
vn -0.976358 -0.051491 -0.209939
vn -0.884963 -0.139957 0.444130
vn -0.032345 0.230882 0.972444
s 1
g pCylinder5
usemtl initialShadingGroup
f 89/150/209 90/151/210 95/157/211 94/156/212
s 2
f 90/151/213 91/152/214 96/158/215 95/157/216
s 3
f 91/152/217 92/153/218 97/159/219 96/158/220
s 4
f 92/153/221 93/154/222 98/160/223 97/159/224
s 5
f 93/154/225 89/155/226 94/161/227 98/160/228
s 1
f 94/156/212 95/157/211 100/163/229 99/162/230
s 2
f 95/157/216 96/158/215 101/164/231 100/163/232
s 3
f 96/158/220 97/159/219 102/165/233 101/164/234
s 4
f 97/159/224 98/160/223 103/166/235 102/165/236
s 5
f 98/160/228 94/161/227 99/167/237 103/166/238
s 1
f 99/162/230 100/163/229 105/169/239 104/168/240
s 2
f 100/163/232 101/164/231 106/170/241 105/169/242
s 3
f 101/164/234 102/165/233 107/171/243 106/170/244
s 4
f 102/165/236 103/166/235 108/172/245 107/171/246
s 5
f 103/166/238 99/167/237 104/173/247 108/172/248
s 6
f 90/146/249 89/145/250 109/179/251
f 91/147/252 90/146/249 109/179/251
f 92/148/253 91/147/252 109/179/251
f 93/149/254 92/148/253 109/179/251
f 89/145/250 93/149/254 109/179/251
s 7
f 104/177/255 105/176/256 110/180/257
f 105/176/256 106/175/258 110/180/257
f 106/175/258 107/174/259 110/180/257
f 107/174/259 108/178/260 110/180/257
f 108/178/260 104/177/255 110/180/257
