<?xml version="1.0" encoding="UTF-8"?>
<svg id="Layer_1" xmlns="http://www.w3.org/2000/svg" version="1.1" viewBox="0 0 216 216">
  <!-- Generator: Adobe Illustrator 29.1.0, SVG Export Plug-In . SVG Version: 2.1.0 Build 142)  -->
  <path d="M69.3,53.4c0,8.3-6.2,15.1-16.3,15.1s-15.7-6.8-15.7-15.1,6.4-15.1,16.1-15.1,15.7,6.6,15.9,15.1ZM38.1,177.7v-97.2h30.2v97.2h-30.2Z"/>
  <path d="M86.4,111.5c0-12.1-.4-22.3-.8-31h26.2l1.4,13.5h.6c4-6.4,13.7-15.7,30-15.7s34.8,13.3,34.8,41.9v57.4h-30.2v-53.9c0-12.5-4.4-21.1-15.3-21.1s-13.3,5.8-15.5,11.3c-.8,2-1,4.8-1,7.5v56h-30.2v-66.2h0Z"/>
</svg>