<?xml version="1.0" encoding="UTF-8"?>
<svg id="Capa_1" xmlns="http://www.w3.org/2000/svg" version="1.1" viewBox="0 0 800 800">
  <!-- Generator: Adobe Illustrator 29.1.0, SVG Export Plug-In . SVG Version: 2.1.0 Build 142)  -->
  <path d="M702.8,168.1l-10.6-10.6L552.9,18.2l-10.6-10.6C537.4,2.8,530.8,0,523.9,0H123.6C107.3,0,89.7,12.6,89.7,40.4v732.1c0,11.5,11.6,22.8,25.4,26.3.7.2,1.4.4,2.1.6,2.2.4,4.3.7,6.6.7h552.7c2.2,0,4.4-.2,6.6-.7.7-.1,1.4-.4,2.1-.6,13.7-3.5,25.4-14.8,25.4-26.3V192.8c0-10.6-1.3-18.4-7.6-24.7ZM661.2,165.5h-116.3V49.2l116.3,116.3ZM123.6,772.4c-1,0-1.9-.4-2.7-.7-2.2-1-3.7-3.2-3.7-5.7v-200.5h565.5v200.5c0,2.5-1.5,4.7-3.7,5.7-.9.3-1.8.7-2.7.7H123.6ZM117.2,537.9V40.4c0-3,.5-12.8,6.4-12.8h394.4c-.5,1.7-.8,3.5-.8,5.4v160.1h160.1c1.9,0,3.6-.3,5.4-.8,0,.2,0,.3,0,.5v345.1H117.2Z"/>
  <path d="M530,316.7c-12.7,0-28.2,1.7-46.3,4.9-25.2-26.8-51.6-65.9-70.2-104.3,18.4-77.6,9.2-88.6,5.1-93.8-4.3-5.5-10.4-14.5-17.4-14.5s-10.9,1.3-14,2.4c-7.9,2.6-12.2,8.8-15.6,16.8-9.8,22.8,3.6,61.7,17.4,91.6-11.8,46.8-31.5,102.8-52.2,148.3-52.3,23.9-80,47.5-82.6,69.9-.9,8.2,1,20.2,15.4,30.9,3.9,2.9,8.5,4.5,13.3,4.5h0c12.1,0,24.3-9.2,38.4-29.1,10.3-14.5,21.3-34.2,32.9-58.6,36.9-16.2,82.6-30.7,121.8-38.9,21.8,20.9,41.3,31.5,58.1,31.5s23-5.7,30.6-16.4c8-11.2,9.8-21.2,5.4-29.8-5.3-10.3-18.4-15.4-40-15.4ZM283.3,450.1c-6.5-5-6.1-8.3-5.9-9.5.9-7.7,12.9-21.3,42.3-37.8-22.3,41.3-34.3,46.7-36.4,47.4ZM396.4,134c.6-.2,14.4,15.2,1.3,44.4-19.7-20.1-2.7-43.9-1.3-44.4ZM367.8,355c14-33.4,27-70.2,36.9-104.3,15.5,27.8,34.1,54.8,52.7,76.5-29.4,6.9-60.8,16.7-89.6,27.9ZM545.8,348.4c-4.2,5.9-13.5,6.1-16.7,6.1-7.4,0-10.1-4.4-21.3-13,9.3-1.2,18-1.5,25-1.5,12.3,0,14.5,1.8,16.2,2.7-.3,1-1.1,2.8-3.2,5.7Z"/>
</svg>