<?xml version="1.0" encoding="UTF-8"?>
<svg id="Layer_1" xmlns="http://www.w3.org/2000/svg" version="1.1" viewBox="0 0 595.3 841.9">
  <!-- Generator: Adobe Illustrator 29.1.0, SVG Export Plug-In . SVG Version: 2.1.0 Build 142)  -->
  <defs>
    <style>
      .st0 {
        fill: #fff;
      }

      .st1 {
        fill: #231f20;
      }
    </style>
  </defs>
  <path class="st1" d="M335.7,342.2c-12.3,5.2-51.2,23.4-68.3,28.6-3.3,1.1-4.5,5.9-1.1,7.8,13.7,3.7,25.6,4.8,49.4,10.4,16.3,3.7,14.9,0,17.8-8.9,4.8-13.7,9.3-29.3,10.8-34.5,1.5-5.9-3-5.2-8.5-3.3h0Z"/>
  <path class="st1" d="M294.5,693.5h-53.8c-49.8-1.5-98.8-8.9-141.9-31.9C16,617,1.1,495.2,0,406.4c-.4-56.4,8.5-117.7,30.8-171.9,12.6-25.3,41.6-50.1,66.8-60.5,111.4-45.3,306.7-49,402.9-63.5,1.5,20.8,5.2,76.9,5.2,76.9,0,0-195.3-10-293.7,12.3-44.6,9.7-107.7,27.1-121.8,64.2-28.6,75.8-30.8,156.3-12.6,246.6,4.1,20.4,11.5,41.2,20.8,59.4,9.7,18.9,24.1,34.2,44.6,40.8,73.5,23.8,142.6,19.3,218.4,14.1,47.5-3.3,104.7-6.3,139.6-44.6,22.3-27.1,28.2-62,28.6-96.9,0-30.1-3-60.2-9.7-87.3-18.9-79.1-141.1-118.5-226.9-86.5-12.6,3.3-29.3,15.2-42,21.5-23.8,14.9-36,30.1-52.7,44.9-1.1,1.1-1.9,6.7-.7,7.8,20.4,20.8,46.4,40.8,76.5,46.8,44.6,9.7,83.9-5.9,125.1,9.7,12.6,6.3,25.3,9.7,34.9,18.9,9.7,9.7,39,27.9,33.4,34.5-7.1,8.5-17.5,14.1-25.6,21.5-68,61.3-177.5,62-259.6,16-36-20.4-43.1-62.4-46.4-100.3-6.3-57.2,0-127.4,53.8-165.6,34.9-22.3,76.1-25.3,114.4-28.6,66.8-3.3,137.8-4.8,201.3,27.1,38.2,18.9,56.1,52.4,68.7,90.6h0c13,38.6,20.8,79.1,21.2,119.2,0,48.6-11.1,96.6-38.6,140-18.9,28.6-48.6,48.6-83.6,58.3-59,11.9-119.2,18.9-178.6,20.8h0v.7Z"/>
  <path class="st0" d="M313.1,526c1.1-5.2,5.9-21.2,10.8-34.5,3-8.5,1.5-12.6,17.8-8.9,23.8,5.6,35.7,6.7,49.4,10.4,3.3,1.9,2.2,6.7-1.1,7.8-17.1,5.2-56.1,23.4-68.3,28.6-5.2,2.2-9.7,3-8.5-3.3h0Z"/>
</svg>