<?xml version="1.0" encoding="UTF-8"?>
<svg id="Layer_1" xmlns="http://www.w3.org/2000/svg" version="1.1" viewBox="0 0 595.3 841.9">
  <!-- Generator: Adobe Illustrator 29.1.0, SVG Export Plug-In . SVG Version: 2.1.0 Build 142)  -->
  <defs>
    <style>
      .st0 {
        fill: #939393;
      }
    </style>
  </defs>
  <path class="st0" d="M506,488.4v.8c-10.7,34.2-28.6,65-50.4,93.2-19.1,24.8-40.1,45.3-74.2,41.2-18.1-2.2-32.4-12.3-49.5-16.7-16.4-4.2-34.6-3.9-50.9.6-15.9,4.4-30.2,13.5-46.6,16.4l-9.6,1.1h-4.5l-8.1-1.1c-17.8-3.5-32.8-17.6-44.3-30.9-43-49.8-70.5-111-77.4-176.9l-1.3-18.4c.1-4.8-.2-9.7,0-14.5,1.8-56.6,27.7-112.6,82-135.6,25.5-10.8,50.7-12.6,77.2-4.2,15.7,5,38.8,17.8,54.7,16.8,12.2-.8,28.8-9.1,40.5-13.4,24.5-9,44.7-12.5,70.9-8.2,31.8,5.2,59.8,22.4,78.2,48.8-3.9,2.9-8,5.6-11.9,8.6-56.3,45.3-59.4,129.1-2.7,175.5,8.3,6.8,17.9,12.9,27.9,17Z"/>
  <path class="st0" d="M399.3,112.9c2,13.4.2,27.3-3.7,40.1-8.5,27.8-27.5,52.6-53.1,66.7s-30.1,13-45.9,10.7c-3-19.4,3-39.8,12.1-56.7,17.3-32.2,50.9-56.8,87.8-60.5l.6-.3h2.2Z"/>
</svg>