<?xml version="1.0" encoding="UTF-8"?>
<svg id="Layer_1" xmlns="http://www.w3.org/2000/svg" version="1.1" viewBox="0 0 595.3 841.9">
  <!-- Generator: Adobe Illustrator 29.1.0, SVG Export Plug-In . SVG Version: 2.1.0 Build 142)  -->
  <defs>
    <style>
      .st0 {
        fill: #4a9ea6;
      }

      .st1 {
        fill: #24ca71;
      }

      .st2 {
        fill: #fe7237;
      }

      .st3 {
        fill: #c49c8a;
      }

      .st4 {
        fill: #d24282;
      }

      .st5 {
        fill: #874ffe;
      }

      .st6 {
        fill: #00b5fe;
      }

      .st7 {
        fill: #fea681;
      }

      .st8 {
        fill: #fe3737;
      }

      .st9 {
        fill: #fcfdfe;
      }
    </style>
  </defs>
  <rect class="st9" x="-85" y="57.9" width="720" height="720"/>
  <g>
    <path class="st8" d="M297.8,87.3v223c-37.6,0-76.6-1.3-114,0-1.1-1.7-4.1-.9-6-1-31.9-1-63.6-20-81.8-45.7-52-73.2-2.5-171.5,86.3-176.4,37.1-2,78,0,115.5,0Z"/>
    <path class="st2" d="M419.8,309.3c-2.9.2-7-.9-9,1-1.7,0-3.3,0-5,0-1.1-1.7-4.1-1-6-1s-5.6-.7-7,1h-95V87.3c38.2,0,81-2.4,118.5,0,77,4.9,125.3,85.3,94.9,156-15.3,35.6-52.2,63.8-91.5,66Z"/>
    <path class="st5" d="M177.8,310.3c2-.1,4,0,6,0,37.4-1.3,76.4,0,114,0v94c-.9,8.2-.9,27.8,0,36v92h-114c-2.3,0-4.7,0-7,0-34.8-1.1-71.1-26.9-87.8-56.7-39.4-70.2,8.6-160.1,88.8-165.3Z"/>
    <path class="st1" d="M297.8,532.3c0,37.6,2,78.3,0,115.5-4.5,82.2-90.2,133.9-164.3,94.3-96.2-51.5-67.7-197.8,43.3-208.8,2.3-.2,5.1.8,7-1h114Z"/>
    <path class="st6" d="M399.8,310.3c2-.1,4,0,6,0s3.3,0,5,0c2.9,0,6.1-.3,9,0,43.6,3.8,84,38,95.5,80,28.8,105-91.7,185.5-177,118-18.1-14.3-37.9-44.8-40.5-68-.9-8.2-.9-27.8,0-36,5-47.1,51.7-89.3,98-94s2.7,0,4,0Z"/>
    <path class="st3" d="M419.8,309.3v1c-2.9-.3-6.1,0-9,0,2-1.9,6.1-.8,9-1Z"/>
    <path class="st0" d="M183.8,532.3c-1.9,1.8-4.7.8-7,1v-1c2.3,0,4.7,0,7,0Z"/>
    <path class="st4" d="M183.8,310.3c-2,0-4-.1-6,0v-1c1.9,0,4.9-.7,6,1Z"/>
    <path class="st7" d="M399.8,309.3v1c-1.3,0-2.7-.1-4,0h-3c1.4-1.7,4.8-1,7-1Z"/>
    <path class="st3" d="M405.8,310.3c-2,0-4-.1-6,0v-1c1.9,0,4.9-.7,6,1Z"/>
  </g>
</svg>