<?xml version="1.0" encoding="UTF-8"?>
<svg id="Layer_1" xmlns="http://www.w3.org/2000/svg" version="1.1" xmlns:xlink="http://www.w3.org/1999/xlink" viewBox="0 0 640 480">
  <!-- Generator: Adobe Illustrator 29.1.0, SVG Export Plug-In . SVG Version: 2.1.0 Build 142)  -->
  <defs>
    <style>
      .st0 {
        fill: #fff;
      }

      .st1 {
        fill: none;
      }

      .st2 {
        fill: #36687f;
      }

      .st3 {
        fill: #7fc5de;
      }

      .st4 {
        fill: #39a5cc;
      }

      .st5 {
        clip-path: url(#clippath);
      }
    </style>
    <clipPath id="clippath">
      <rect class="st1" width="640" height="480"/>
    </clipPath>
  </defs>
  <g class="st5">
    <path class="st0" d="M248.3,86.2c18.3,0,36.6.2,54.8-.1,12.1,46.8,23.6,93.7,35.4,140.5,12.2-46.9,24.4-93.8,37.2-140.5,17.4.3,34.9.2,52.4,0,.3,58.3.2,116.7,0,175-13.7-.2-27.4,0-41.2-.2,0-37.6,0-75.1,0-112.7-9.6,37.6-19.1,75.3-29.3,112.7-13.8-.2-27.5.4-41.3-.4-9.8-39.1-20.3-77.9-30.7-116.9.5,39,.2,78.1.2,117.2-12.6.1-25.1.1-37.7,0,.2-58.2,0-116.5,0-174.8"/>
    <path class="st0" d="M273.3,361.6c7.4,0,14.7,0,22.1.1,6.6,22.1,13.4,44.2,19.9,66.3-5.7,0-11.4,0-17.1-.3-1.2-4.7-2.5-9.4-3.7-14.1-6.7,0-13.3,0-20,0-1.2,4.8-2.4,9.5-3.6,14.3h-16.7c6.5-22.1,12.7-44.3,19-66.4M284.2,374.1c-2.4,9-4.6,18-6.4,27.1h13.1c-2-9.1-4.2-18.2-6.7-27.1"/>
    <path class="st0" d="M308.9,361.8c5.9,0,11.7,0,17.6,0,4.1,9.2,7.9,18.6,12.2,27.7,4-9.2,7.9-18.4,11.8-27.7,5.8,0,11.6-.1,17.4-.1-6.4,10.9-11.9,22.4-17.8,33.5-6.2,9.8-2.4,21.9-3.4,32.8-5.5,0-11.1,0-16.6,0-.3-9,.8-18-.6-26.9-6.4-13.3-13.5-26.3-20.4-39.4"/>
    <path class="st0" d="M380.5,361.8c7.4,0,14.8,0,22.2-.2,6.7,22.2,13.1,44.3,20,66.4-5.8,0-11.6,0-17.4-.4-1.1-4.7-2.4-9.4-3.8-14-6.6-.2-13.2-.2-19.8.3-1.1,4.7-2.4,9.4-3.6,14.1-5.5,0-11.1,0-16.6,0,6.4-22.1,12.8-44.1,18.9-66.2M391.6,372.9c-2.4,9.3-4.4,18.7-6.8,28,4.5,0,9.1.2,13.6.3-2.5-9.4-4.5-18.9-6.8-28.4"/>
    <path class="st3" d="M109,57.1c22.5-13.9,45.2-27.5,68-41.1.4,105-.2,210,.3,315-10.6,5.7-20.7,12.3-31,18.5-12.4,7.4-24.7,15.1-37.2,22.3,0-104.9,0-209.9,0-314.8"/>
    <path class="st4" d="M177,16c100.1,0,200.2,0,300.3,0,11.2-.3,22.2,9.2,22.5,20.7.6,16.3,0,32.7.2,49.1.4,81.6.2,163.3,0,244.9-107.6.6-215.2-.2-322.8.4-.5-105,0-210-.3-315M248.3,86.2c0,58.2.1,116.5,0,174.8,12.6.1,25.1.1,37.7,0,0-39,.3-78.1-.2-117.2,10.4,38.9,20.8,77.8,30.7,116.9,13.8.8,27.5.2,41.3.4,10.2-37.4,19.7-75.1,29.3-112.7,0,37.6,0,75.1,0,112.7,13.8,0,27.5,0,41.2.2.1-58.3.3-116.7,0-175-17.4.1-34.9.2-52.4,0-12.8,46.7-25,93.6-37.2,140.5-11.8-46.8-23.3-93.7-35.4-140.5-18.3.3-36.5.1-54.8.1"/>
    <path class="st2" d="M499.9,85.7c10.4,0,20.7,0,31.1,0,0,126.1,0,252.2,0,378.3-121-.3-241.9,0-362.9-.2-12.3-.2-23.3-11.5-22-23.9,0-30.1,0-60.3,0-90.4,10.4-6.1,20.4-12.7,31-18.5,107.6-.6,215.2.2,322.8-.4.1-81.6.3-163.3,0-244.9M273.3,361.6c-6.3,22.2-12.5,44.3-19,66.4h16.7c1.2-4.8,2.4-9.5,3.6-14.3,6.7-.2,13.3-.2,20,0,1.3,4.7,2.5,9.4,3.7,14.1,5.7.2,11.4.2,17.1.3-6.6-22.1-13.3-44.2-19.9-66.3-7.4,0-14.8,0-22.1-.1M308.9,361.8c6.9,13.1,14,26.1,20.4,39.4,1.4,8.9.3,18,.6,26.9,5.5,0,11.1,0,16.6,0,1-10.9-2.8-23,3.4-32.8,6-11.2,11.4-22.6,17.8-33.5-5.8,0-11.6,0-17.4.1-3.9,9.3-7.8,18.5-11.8,27.7-4.3-9.1-8.1-18.5-12.2-27.7-5.9,0-11.7,0-17.6,0M380.5,361.8c-6.2,22.1-12.5,44.2-18.9,66.2,5.5,0,11.1,0,16.6,0,1.2-4.7,2.4-9.4,3.6-14.1,6.6-.4,13.2-.4,19.8-.3,1.4,4.6,2.7,9.3,3.8,14,5.8.4,11.5.5,17.4.4-6.9-22.1-13.4-44.2-20-66.4-7.4,0-14.8,0-22.2.2"/>
    <path class="st2" d="M284.2,374.1c2.5,9,4.7,18,6.7,27.1h-13.1c1.8-9.1,4-18.1,6.4-27.1"/>
    <path class="st2" d="M391.6,372.9c2.3,9.4,4.2,19,6.8,28.4-4.5-.1-9.1-.2-13.6-.3,2.5-9.3,4.5-18.7,6.8-28"/>
  </g>
</svg>