<?xml version="1.0" encoding="UTF-8"?>
<svg id="Layer_1" xmlns="http://www.w3.org/2000/svg" version="1.1" viewBox="0 0 595.3 841.9">
  <!-- Generator: Adobe Illustrator 29.1.0, SVG Export Plug-In . SVG Version: 2.1.0 Build 142)  -->
  <defs>
    <style>
      .st0 {
        fill: #fff;
      }

      .st1 {
        fill: #ff0653;
      }
    </style>
  </defs>
  <rect class="st1" x="5" y="197.9" width="563" height="563"/>
  <g>
    <path class="st0" d="M81,461.9v72h-28v-171h27v15c1.7.4,2-.5,3-1.5,50.4-51.8,120.2,18.5,83.4,78.4-15.7,25.6-54.6,34.3-77.9,14.1-2.8-2.4-4-6.5-7.5-7ZM109.8,382.2c-40.6,5.5-37.6,74.7,4.7,74.7,45.7,0,43.3-81.2-4.7-74.7Z"/>
    <path class="st0" d="M293,307.9v25h-69l-2,37c11.5-1.5,21.6-2.7,33.2-.7,34.7,5.9,50.7,33.9,43.3,67.7-11,50.4-84.7,59.4-111.3,17.5l20.3-19.5c10.8,30.9,60.5,29.2,63.5-5.5s-47.1-44-77-29.5l3-92h96Z"/>
    <path class="st0" d="M523.1,391.8c-6.5-11.5-29.8-16.1-39.6-6.9s-3.2,14,2.8,17.2c16.3,8.8,51.2,7.3,55.5,32.5,8.9,52.8-66.1,55.9-93.3,27.3l18-18c7.5,12.2,38,21,46.4,7.3,7.2-11.7-2.9-17.1-12.3-20.4-23.2-8.1-49.3-7.7-45.5-41.5,4-36,68.7-39.3,86.9-13.1-2.1,2.4-16.9,16.9-18.8,15.6Z"/>
    <path class="st0" d="M426,356.9v140.5c0,2.7-3.2,13.7-4.5,16.5-8.6,19-29.9,21.9-48.5,19l2.1-23.9c7.7.6,15,1.9,19.7-5.8s3.2-6.8,3.2-7.8v-138.5h28Z"/>
    <path class="st0" d="M355,434.9v18l16.4-4.9c1.6,1.8,5.1,8.8,2.3,10.2-4.2,2.1-10.3,3.1-14.7,4.8l10,15.5-9.4,5.6-9.6-14.1-11.5,14-8.4-6.5,10-14.5-16-5.1,2-9.9,18,5v-18h11Z"/>
  </g>
</svg>