<?xml version="1.0" encoding="UTF-8"?>
<svg id="Layer_1" xmlns="http://www.w3.org/2000/svg" version="1.1" viewBox="0 0 595.3 841.9">
  <!-- Generator: Adobe Illustrator 29.1.0, SVG Export Plug-In . SVG Version: 2.1.0 Build 142)  -->
  <defs>
    <style>
      .st0 {
        fill: #fff;
      }
    </style>
  </defs>
  <path class="st0" d="M330,400.9h-4v37h4v-37ZM177,409.9h-39.5c-1.8,0-6.5,5.6-6.5,7.5v23.5h40.5c.4,0,5.5-5.6,5.5-6.5v-24.5ZM215,418.9l-1.5-5h-16.5v24h4v-19h14ZM247.5,413.9h-26.5v24h22v-5h-18c.6-4.4-1.6-10.5,1.5-14h17.5c-.4,5.7-4.4,5.3-9,5v4c10.3,1.2,13.2-1.4,14-11.5l-1.5-2.5ZM284,418.9l-1.5-5h-22.5c-1.3,8,6.4,12.8,10,19h-18v5h24c.1-2.4.2-4.5-.8-6.7-1.7-4.1-8-7.8-9.2-12.3h18ZM289,437.9h21.5c1.3,0,6.5-5.2,6.5-6.5v-16l-1.5-1.5h-20c-1.7,0-6.5,3.8-6.5,5.5v18.5ZM344,413.9l-4.9,1.6.3,21.4c1.8,2.5,11.7,0,14.6-.5l9-5.5-.6,6.1,4.6.9v-24h-4c.1,12.3-5.8,21-19,19v-19ZM400,418.9v19h4c-1.1-12.4,6.4-20.7,19-19v19h4v-24c-8.4-.5-16.6,1.2-23,7v-7c-8-.2-16.9.6-22.5,7l-.5-7c-3.7-.2-4.6-.2-5,3.5-.7,5.7.5,13,.2,18.9l4.9,1.6c-1.6-12.5,6.5-20.6,19-19ZM463.5,413.9h-26.5l-.8,22.5,1.3,1.5h21.5v-5h-18v-14h19c-1.3,6.3-3.8,4.6-9,5.5v3.4c4.7.3,9.5,1.2,11.9-3.5s3-9.7.6-10.4Z"/>
  <path d="M177,409.9v24.5c0,.9-5.1,6.5-5.5,6.5h-40.5v-23.5c0-1.9,4.7-7.5,6.5-7.5h39.5Z"/>
  <path d="M400,418.9c-12.5-1.6-20.6,6.5-19,19l-4.9-1.6c.3-5.9-.9-13.2-.2-18.9s1.4-3.7,5-3.5l.5,7c5.6-6.4,14.5-7.2,22.5-7v7c6.4-5.8,14.6-7.5,23-7v24h-4v-19c-12.6-1.7-20.1,6.6-19,19h-4v-19Z"/>
  <path d="M289,437.9v-18.5c0-1.7,4.8-5.5,6.5-5.5h20l1.5,1.5v16c0,1.3-5.2,6.5-6.5,6.5h-21.5ZM312,418.9h-16.5c-3.1,3.5-.9,9.6-1.5,14h16.5c3.1-3.5.9-9.6,1.5-14Z"/>
  <path d="M463.5,413.9c2.4.7.3,8.5-.6,10.4-2.4,4.7-7.2,3.8-11.8,3.5v-3.4c5.1-.9,7.6.8,8.9-5.5h-19v14h18v5h-21.5l-1.3-1.5.8-22.5h26.5Z"/>
  <path d="M247.5,413.9l1.5,2.5c-.8,10.1-3.7,12.7-14,11.5v-4c4.6.3,8.6.7,9-5h-17.5c-3.1,3.5-.9,9.6-1.5,14h18v5h-22v-24h26.5Z"/>
  <path d="M284,418.9h-18c1.2,4.5,7.6,8.1,9.2,12.3s.9,4.4.8,6.7h-24v-5h18c-3.6-6.2-11.3-11-10-19h22.5l1.5,5Z"/>
  <path d="M344,413.9v19c13.2,2,19.1-6.7,19-19h4s0,24,0,24l-4.6-.9.6-6.1-9,5.5c-2.9.5-12.8,3.1-14.6.5l-.3-21.4,4.9-1.6Z"/>
  <polygon points="215 418.9 201 418.9 201 437.9 197 437.9 197 413.9 213.5 413.9 215 418.9"/>
  <rect x="326" y="400.9" width="4" height="37"/>
  <path class="st0" d="M312,418.9c-.6,4.4,1.6,10.5-1.5,14h-16.5c.6-4.4-1.6-10.5,1.5-14h16.5Z"/>
</svg>